<svg class="main-svg" xmlns="http://www.w3.org/2000/svg" xmlns:xlink="http://www.w3.org/1999/xlink" width="700" height="700" style="" viewBox="0 0 700 700"><rect x="0" y="0" width="700" height="700" style="fill: rgb(255, 255, 255); fill-opacity: 1;"/><defs id="defs-0a3fbe"><g class="clips"><clipPath id="clip0a3fbegeo"><rect x="0" y="64.9272461516066" width="599" height="570.1455076967868"/></clipPath></g><g class="gradients"><linearGradient x1="0" x2="0" y1="1" y2="0" id="g0a3fbe-cbcoloraxis"><stop offset="0%" stop-color="rgb(13, 8, 135)" stop-opacity="1"/><stop offset="11.111111%" stop-color="rgb(70, 3, 159)" stop-opacity="1"/><stop offset="22.222222%" stop-color="rgb(114, 1, 168)" stop-opacity="1"/><stop offset="33.333333%" stop-color="rgb(156, 23, 158)" stop-opacity="1"/><stop offset="44.444444%" stop-color="rgb(189, 55, 134)" stop-opacity="1"/><stop offset="55.555556%" stop-color="rgb(216, 87, 107)" stop-opacity="1"/><stop offset="66.666667%" stop-color="rgb(237, 121, 83)" stop-opacity="1"/><stop offset="77.777778%" stop-color="rgb(251, 159, 58)" stop-opacity="1"/><stop offset="88.888889%" stop-color="rgb(253, 202, 38)" stop-opacity="1"/><stop offset="100%" stop-color="rgb(240, 249, 33)" stop-opacity="1"/></linearGradient></g><g class="patterns"/></defs><g class="bglayer"/><g class="layer-below"><g class="imagelayer"/><g class="shapelayer"/></g><g class="cartesianlayer"/><g class="polarlayer"/><g class="smithlayer"/><g class="ternarylayer"/><g class="geolayer"><g class="geo geo" clip-path="url(#clip0a3fbegeo)"><g class="layer bg"><rect x="0" y="64.9272461516066" width="599" height="570.1455076967868" style="pointer-events: all; fill: rgb(255, 255, 255); fill-opacity: 1;"/></g><g class="layer ocean"><path d="M171.98022386670584,78.80718436182838L161.99645294907708,74.91384166547732L148.15716032894068,92.98473959718672L138.4864840457352,117.31531357687254L142.80327841439555,131.046771561819L139.09250578317574,154.35606230959297L148.59278786588283,144.28538503353911L151.87347442196238,151.83229895678483L144.84014321259298,161.69014711553655L146.98045851801407,168.7611335920767L163.01553182817435,175.83775134219263L169.9815174336677,192.4653729394554L165.51434590697477,205.9834088955804L144.97654313448874,200.2004889003697L139.51794896109038,214.9780826542035L145.05067294233845,229.06053371711118L128.72943002767454,233.676370759498L131.0240279291486,243.65206556501016L153.13672026384597,251.70027535701252L139.17165537968634,254.4345346455268L113.19313713057244,274.5647570517376L120.16483662852659,280.61388796310825L132.13702731086295,273.82078314364685L145.33539346741844,278.9444640247391L156.98587726231324,269.7763142209576L163.02173321828275,275.2684338093859L189.18111301737852,272.87709916104654L208.77922394453861,275.8300316943455L223.58764194009535,265.34053789133304L219.36431531590122,252.35727804315502L227.53274173912124,246.5031549109624L231.21364315508393,231.62905182629083L214.42912683219373,224.70231518857895L211.7026113133735,214.98311672467457L206.78463628099925,186.49271673804765L197.84109979826917,181.22187004165198L189.26468289380858,148.15759272328205L175.4806797539378,144.3427507752026L191.1352888316132,124.65605702688708L197.7818355321788,105.0989077437664L183.44014749476977,102.77240527988033L169.36300962007152,103.76486597021653L187.9354180534239,79.49009072187141ZM124.00010135446735,186.97310764344115L134.6442484566145,172.21343025765327L122.87373546022587,154.51656881521035L111.24533197590489,153.23618038270638L98.5363638652355,162.14569796747628L75.68387653223641,176.4148611599294L77.53950618913211,201.86020776284386L60.50435418212538,223.43643815631413L79.91582669026553,231.55278883513665L108.19026021235396,223.1239496120429L123.06339536194423,204.40957423215787ZM418.9723762734288,577.5210193664382L401.12690469500706,579.804344742585L380.6499239959222,577.4530471358429L377.85751205284,588.8144240889521L402.32300886938907,600.6482878832784L411.4055355977884,603.1261232540489L424.99670057313784,611.561676009915L428.65504015940377,599.9523252661612L425.933048864265,593.1520609672524L432.20915230219487,575.6993957113631ZM316.62332494994007,512.8970419105747L307.40802902528594,511.12730997742926L310.4294458010512,524.2505788250048L309.4146423419285,551.2073297462628L315.6151417203442,557.4074386556922L323.1875352653371,550.3795856186686L330.89141200504116,552.1819170739059L334.7908432899006,522.7455150454235L325.36828073378996,506.50496402700924ZM319.4633912433775,474.12832941568604L315.5402787575715,482.2319559523105L318.5674049999226,497.6243644742759L325.87550518678665,502.686166238355L332.3510486166647,485.5879753226027L330.4933410721884,466.18427251481876ZM387.08900219884924,161.2558545018344L366.6931304841881,168.79786967438895L368.307683215417,178.9856094697452L382.4096735742309,193.23714510641162L391.26469364335446,173.70813501708813ZM599,630.5608959367152L590.2203124577751,632.2315026464335L579.7179471468713,625.486046012299L577.2248235393071,635.0727538483934L349.2336266906114,635.0727538483934L349.2336266906114,635.0727538483934L349.9424436894418,630.5783228044555L344.01045374395625,624.7505595608744L344.58356945157686,614.5739702178887L353.8195444396447,603.9197884116013L352.69398138019005,599.6746251989513L337.3388440252227,607.2627987594353L338.3124158666076,596.0907864156192L326.1955840463395,592.7126787649983L306.42551459742225,600.6359856260823L294.20543465789166,601.2616492123634L287.2290571284546,595.5680492452948L268.43712605602286,594.3497814663522L250.95864204472457,601.7016321252846L242.33596347139505,597.498286566806L212.84501874983508,596.3140993128254L182.43918797981237,596.781280175631L164.5039487781492,601.313093324463L152.05983589029404,608.8863711871165L132.27747745638135,609.8541692728176L113.21816252263102,619.2321607349418L105.51843286467482,617.7897753998336L87.86678700995765,609.76423757302L70.59705322116929,608.3224543176246L61.597972090911696,597.1162376750292L48.58169639953093,594.4245984494411L40.382541483318334,606.6509602408244L23.956379743691116,626.7501264275024L8.807404894905574,632.9717896912348L1.6882302383381775,635.0727538483934L0,635.0727538483934L0,64.9272461516066L298.5538877360967,64.9272461516066L298.4997652091452,67.18977502303119L300.65842623520325,94.86491186060562L317.8808215672519,108.94154116501818L335.8481612117851,104.26069636976513L363.18389823831836,76.50782413266188L371.22153013452186,92.35997221223897L380.1714713368199,128.1165494053355L390.76986670804985,156.46958114395397L394.6328768526024,179.7127951948612L410.74124853412945,178.8329036496732L418.534065012542,159.4724768094195L435.17446248605063,161.86461475722172L442.636563009005,138.68302462563383L447.1483049881865,96.51563426634016L460.55117316585,90.31178054326801L470.1604224487235,64.9272461516066L592.7126611508864,64.9272461516066L592.7126611508864,64.9272461516066L590.5799908468491,67.5604232779217L577.3884376241327,69.99987837853723L563.0606534372455,67.12792826704504L547.2074960463581,72.30757667540502L531.3986570038915,80.7272755933518L533.6914469722803,95.1597007834423L542.688386448631,103.52166736469349L547.2719677517634,99.95415530309492L546.9880193399006,114.69604404583356L546.0737853690603,133.8820167643521L535.3525396644197,135.41428978342287L523.286328659566,117.65954063639583L511.3535195921286,126.97796729945844L505.590263637722,142.74640319627815L506.1386306380755,161.37358484654806L510.27524687532866,181.64207372134433L491.50546769610924,190.49742956924706L488.6949325107862,201.3233448387848L475.1413416306384,201.62562479087205L473.93262519866136,195.77591476049997L459.8314548582587,192.02872282774388L442.3200019970133,200.6449506600161L420.4108326903682,211.8558758866502L410.6671803287665,218.9631199771743L403.9785437269034,211.08767165928816L388.274708571748,201.23940926613L380.1124751738922,207.78040618683326L365.58073270363815,211.86884985466145L366.1586656928738,203.1907401611977L352.10402737123115,196.93225258144753L352.2899410911622,187.53586299259177L349.10900229493154,175.52550576976137L359.81650703966176,158.35360948082598L363.77091042969175,161.1731039042786L367.4485083360616,152.00634509151564L360.25030936349066,148.16235782653416L358.9627204904485,141.20292823772434L363.3135114358147,133.1218467142112L364.1953909946182,120.37108978768902L353.18285101370475,127.07056680071446L348.1424393469413,133.54134361160845L336.19694257872595,134.44644682483477L331.8680039365274,141.55541924532758L329.2556332588172,148.07509496888179L328.03086998385055,173.23897651053585L332.81441909298024,187.1584899893212L332.6295927809907,200.92220692704132L335.4128568641381,210.01148933354898L324.9876338730187,221.31873846268854L322.7597120056987,215.9729088130514L310.78426371891055,216.4507843132585L307.6026372404521,221.20401227713L295.8628066054855,219.63407627392735L275.4664424849393,227.79273930140948L259.38449067050203,261.4996384041772L251.07222812163582,267.04314125971064L238.79295251962148,270.37664392497095L225.36976968984132,273.6891264187532L218.5886011116052,292.2294679506376L181.2608518973357,305.3677763575647L168.60589732812255,293.4526829691715L169.28743231216097,320.28448410211286L144.9594573279922,310.2086873935807L124.55792959423997,311.7168150417697L123.04325675103564,328.6050875601909L144.91164205248583,341.4746236344449L154.41834668241296,354.7875907816667L166.72519137450712,381.13731600364713L156.96139073297127,425.482494330141L146.58107564926416,437.7034921672689L120.44856486590106,432.58893450141113L106.83709632145536,431.43792484626715L90.39242831401367,424.4658865367878L68.76864627880991,420.43305985996835L49.966955756592256,412.3516722847746L23.623434598706297,423.2086476383579L28.161754017968747,434.2315356760886L23.778757962410225,449.66377564595746L22.833021571108873,457.3336170918027L24.37441299781011,465.7558494659213L22.764116670539636,475.12012005735767L16.38177900501273,487.538366662254L13.19472653880888,496.10961556916595L4.567898058904007,502.6117095940748L0.12499428649010724,516.434126848202L2.2294489048138644,525.5586017913236L9.423054514727312,529.4364888111987L8.010483261977015,543.0839738496495L1.5856613632180938,559.4952917781569L11.161269872587752,559.1497251683629L19.598017034561508,564.0385957187056L27.834585746230346,559.8479110392099L43.388809004045584,566.708808442298L45.769522162302735,580.2313000159526L50.837100817455564,588.7581675837458L59.23003538768734,592.1980770740023L67.43874667214641,585.1989757924856L79.90662086003107,579.5516680877765L96.5844511660539,582.8808843355894L118.933271174619,586.3605518106049L133.8847849057471,571.2698692651524L147.72619232217,568.8727928342059L153.53758916439654,555.1299853154507L164.88274664172616,546.5911705684698L159.98447259129995,533.1297079878628L169.1058703194016,515.9130235495147L181.09436892600465,505.1206112058693L183.60841862945594,497.71484145573163L205.62821276652699,495.7875517490925L223.27544034319888,482.7443653302362L223.8273199921904,469.5488064355824L227.0977746504925,456.2167578183428L251.73627760699878,451.39070816302956L283.53645917934716,460.2892347336617L299.36475951599414,448.79867930233615L306.2499152541878,447.42570134955463L316.2831081716831,437.6293689029354L324.0539860910083,435.01209703803454L336.8199795854796,443.24952563381703L344.7748015844266,446.07036015124106L348.9905993537765,468.670863334018L359.68823166742317,482.08288095411604L374.5759462858782,497.33879465748464L387.5226625349834,507.7510874473098L399.96250475348336,509.364852793336L407.18243380614854,518.5291470854871L418.1737859096126,522.6266676172793L423.0740068572545,532.3094907868266L430.16605325775214,535.1163405294423L435.48211351238814,546.3598569504748L442.43805068133423,559.1655823144777L438.72969922870476,564.019378246783L435.2035212263319,575.8833439728247L435.2466337336866,582.6991806544424L442.5033958602694,581.0360420660446L451.53455410160046,561.6618802684578L458.86102322781284,560.3326140020591L460.65968900795554,548.6402699675186L447.9706001628184,540.6021061056098L454.989197770424,525.9901480917331L469.9613014427242,529.3022421566939L479.6525664210596,539.5104332339428L482.6404579958753,531.358858016575L480.8165389490665,527.1823561816038L465.8111964813709,516.0867713352544L453.33677066136903,509.4653852352419L438.06447047590865,501.56572818034545L442.7102343106343,497.070150240879L438.5894523280071,492.0473245725466L425.48586446224,492.3138067497662L407.11988734023817,473.9887956690933L399.022243749204,455.18042060753487L383.9289316754893,443.4875063166787L378.7930480444407,431.9168577517037L380.9894437576535,425.41724800307L380.3953251487484,414.11920878767614L393.5087266699269,406.375956536335L406.10799186296146,409.8350388122017L402.6321838806777,411.85246765479155L402.05126882817274,412.25641577490455L401.5228019541538,420.0503985790176L406.2237029742801,427.68558367190826L411.2294793646192,418.0919998802765L421.63065857123576,421.61890815824177L421.91477158993916,429.4047843912847L429.218855935026,438.80405082803236L426.0051196095253,440.6511650573374L439.77064178316033,457.09979880351295L454.9570761657244,463.6132380857516L464.6327900787177,471.5508170256019L480.53167236225397,479.4439878451551L487.87715380385345,483.8645954713354L492.8039830073916,490.9833422643485L496.33101465671825,492.4665248486632L499.34524487038004,495.99027387391413L497.3593679156222,502.955884561762L496.4526255787228,518.3556524302398L498.41293753898043,528.9728377912182L508.2790858808788,536.0073854389635L508.817785546673,541.0198039071953L511.83247240428653,542.4906711622411L513.2145643314994,548.6661804474743L522.741821733298,561.0607051215652L530.0376968765089,570.9125509529123L534.0376473540169,585.5405840402524L541.7790148871042,602.9250666477574L556.9759610965056,611.5532287233455L568.6598113175044,610.3114461924416L560.5239293827451,591.2511301359567L571.6275928679996,588.2159266052992L565.5440368501181,577.227659223617L582.2761702934611,581.935949761975L580.9146721389991,569.3792125494394L571.775177902322,563.6777654877119L561.3042525965748,554.003427790775L567.4749952867301,548.7045772577611L558.1783625105338,538.9126174433667L553.3712417091982,525.7301942497465L556.2453509140134,520.6759422371448L565.9957559458771,531.4678650806168L575.5340907867486,530.7111421331855L583.9866904072373,526.3606902920782L571.1678138265438,514.888105908463L591.061049296294,507.306131667671L599,508.3497953055771L599,630.5608959367152Z" style="stroke: none; fill: rgb(173, 216, 230); fill-opacity: 1;"/></g><g class="layer land"><path d="M577.2248235393071,635.0727538483934L579.7179471468713,625.486046012299L590.2203124577751,632.2315026464335L599,630.5608959367152L599,635.0727538483934ZM418.9723762734288,577.5210193664382L432.20915230219487,575.6993957113631L425.933048864265,593.1520609672524L428.65504015940377,599.9523252661612L424.99670057313784,611.561676009915L411.4055355977884,603.1261232540489L402.32300886938907,600.6482878832784L377.85751205284,588.8144240889521L380.6499239959222,577.4530471358429L401.12690469500706,579.804344742585ZM316.62332494994007,512.8970419105747L325.36828073378996,506.50496402700924L334.7908432899006,522.7455150454235L330.89141200504116,552.1819170739059L323.1875352653371,550.3795856186686L315.6151417203442,557.4074386556922L309.4146423419285,551.2073297462628L310.4294458010512,524.2505788250048L307.40802902528594,511.12730997742926ZM319.4633912433775,474.12832941568604L330.4933410721884,466.18427251481876L332.3510486166647,485.5879753226027L325.87550518678665,502.686166238355L318.5674049999226,497.6243644742759L315.5402787575715,482.2319559523105ZM111.24533197590489,153.23618038270638L122.87373546022587,154.51656881521035L134.6442484566145,172.21343025765327L124.00010135446735,186.97310764344115L123.06339536194423,204.40957423215787L108.19026021235396,223.1239496120429L79.91582669026553,231.55278883513665L60.50435418212538,223.43643815631413L77.53950618913211,201.86020776284386L75.68387653223641,176.4148611599294L98.5363638652355,162.14569796747628ZM387.08900219884924,161.2558545018344L391.26469364335446,173.70813501708813L382.4096735742309,193.23714510641162L368.307683215417,178.9856094697452L366.6931304841881,168.79786967438895ZM163.01553182817435,175.83775134219263L146.98045851801407,168.7611335920767L144.84014321259298,161.69014711553655L151.87347442196238,151.83229895678483L148.59278786588283,144.28538503353911L139.09250578317574,154.35606230959297L142.80327841439555,131.046771561819L138.4864840457352,117.31531357687254L148.15716032894068,92.98473959718672L161.99645294907708,74.91384166547732L171.98022386670584,78.80718436182838L187.9354180534239,79.49009072187141L169.36300962007152,103.76486597021653L183.44014749476977,102.77240527988033L197.7818355321788,105.0989077437664L191.1352888316132,124.65605702688708L175.4806797539378,144.3427507752026L189.26468289380858,148.15759272328205L197.84109979826917,181.22187004165198L206.78463628099925,186.49271673804765L211.7026113133735,214.98311672467457L214.42912683219373,224.70231518857895L231.21364315508393,231.62905182629083L227.53274173912124,246.5031549109624L219.36431531590122,252.35727804315502L223.58764194009535,265.34053789133304L208.77922394453861,275.8300316943455L189.18111301737852,272.87709916104654L163.02173321828275,275.2684338093859L156.98587726231324,269.7763142209576L145.33539346741844,278.9444640247391L132.13702731086295,273.82078314364685L120.16483662852659,280.61388796310825L113.19313713057244,274.5647570517376L139.17165537968634,254.4345346455268L153.13672026384597,251.70027535701252L131.0240279291486,243.65206556501016L128.72943002767454,233.676370759498L145.05067294233845,229.06053371711118L139.51794896109038,214.9780826542035L144.97654313448874,200.2004889003697L165.51434590697477,205.9834088955804L169.9815174336677,192.4653729394554L163.06575231901598,176.28915289369957ZM599,508.34109851753146L594.0025956018557,507.64318617408287L591.061049296294,507.306131667671L588.9890955964082,508.1025226832595L571.1678138265438,514.888105908463L583.9866904072373,526.3606902920782L575.5340907867486,530.7111421331855L565.9957559458771,531.4678650806168L556.2453509140134,520.6759422371448L553.3712417091982,525.7301942497465L558.1783625105338,538.9126174433667L561.0410676963802,541.9308087324192L567.4749952867301,548.7045772577611L561.8976790564027,553.5569865175513L561.3042525965748,554.003427790775L563.3219485058744,555.8683112958593L571.775177902322,563.6777654877119L580.9146721389991,569.3792125494394L582.2761702934611,581.935949761975L565.5440368501181,577.227659223617L571.6275928679996,588.2159266052992L560.5239293827451,591.2511301359567L568.6598113175044,610.3114461924416L566.4289187939188,610.6779400710814L556.9759610965056,611.5532287233455L541.7790148871042,602.9250666477574L534.0376473540169,585.5405840402524L530.0376968765089,570.9125509529123L522.741821733298,561.0607051215652L513.2145643314994,548.6661804474743L511.83247240428653,542.4906711622411L508.817785546673,541.0198039071953L508.2790858808788,536.0073854389635L498.41293753898043,528.9728377912182L496.4526255787228,518.3556524302398L497.3593679156222,502.955884561762L499.34524487038004,495.99027387391413L496.33101465671825,492.4665248486632L492.8039830073916,490.9833422643485L490.41860229956797,487.626380258665L487.87715380385345,483.8645954713354L486.0356572557787,482.7118790067923L480.53167236225397,479.4439878451551L464.6327900787177,471.5508170256019L454.9570761657244,463.6132380857516L439.77064178316033,457.09979880351295L426.0051196095253,440.6511650573374L427.90513101101726,439.6254860959657L429.218855935026,438.80405082803236L426.1417844489464,434.9275205241971L421.91477158993916,429.4047843912847L421.77062214782273,427.7665688790114L421.63065857123576,421.61890815824177L411.2294793646192,418.0919998802765L406.9615039350483,426.4635633231576L406.2237029742801,427.68558367190826L401.5228019541538,420.0503985790176L402.05126882817274,412.25641577490455L402.6321838806777,411.85246765479155L403.5030518441475,411.2461177960024L406.10799186296146,409.8350388122017L393.5087266699269,406.375956536335L388.4236586154071,409.3662747880551L380.3953251487484,414.11920878767614L380.9894437576535,425.41724800307L379.10480652027763,431.10591557931457L378.7930480444407,431.9168577517037L383.9289316754893,443.4875063166787L397.70576959685786,454.3469429324248L399.022243749204,455.18042060753487L399.01948926840925,455.3841617115552L407.11988734023817,473.9887956690933L425.48586446224,492.3138067497662L438.5894523280071,492.0473245725466L442.7102343106343,497.070150240879L441.3630492807134,498.29849220490917L438.06447047590865,501.56572818034545L441.2598893630304,503.1550543794315L453.33677066136903,509.4653852352419L464.1101354309573,515.1156537112972L465.8111964813709,516.0867713352544L480.8165389490665,527.1823561816038L482.6404579958753,531.358858016575L479.6525664210596,539.5104332339428L469.9613014427242,529.3022421566939L454.989197770424,525.9901480917331L452.3159827356985,531.6780607448792L447.9706001628184,540.6021061056098L459.24656278236824,547.863465467904L460.65968900795554,548.6402699675186L458.86102322781284,560.3326140020591L451.53455410160046,561.6618802684578L447.5797963291169,570.348693581894L442.5033958602694,581.0360420660446L439.3489965874377,581.6667062910035L435.2466337336866,582.6991806544424L435.2453660924051,582.4987739401078L435.2035212263319,575.8833439728247L438.72969922870476,564.019378246783L442.43805068133423,559.1655823144777L439.58149054572635,553.9686657300047L435.48211351238814,546.3598569504748L430.16605325775214,535.1163405294423L428.3136979121739,534.316756762358L423.0740068572545,532.3094907868266L418.1737859096126,522.6266676172793L407.18243380614854,518.5291470854871L399.96250475348336,509.364852793336L387.5226625349834,507.7510874473098L375.1695370563641,497.75938127468226L374.5759462858782,497.33879465748464L374.4302894234484,497.1324548272406L359.68823166742317,482.08288095411604L348.9905993537765,468.670863334018L344.7748015844266,446.07036015124106L336.8199795854796,443.24952563381703L331.84783917608365,439.93362116883395L324.0539860910083,435.01209703803454L320.01962098734845,436.41870113203834L316.2831081716831,437.6293689029354L311.27328002575456,442.63888573119254L306.2499152541878,447.42570134955463L299.36475951599414,448.79867930233615L283.53645917934716,460.2892347336617L251.73627760699878,451.39070816302956L227.0977746504925,456.2167578183428L223.8273199921904,469.5488064355824L223.27544034319888,482.7443653302362L205.62821276652699,495.7875517490925L183.60841862945594,497.71484145573163L181.09436892600465,505.1206112058693L179.87351641792858,506.18012343862233L169.1058703194016,515.9130235495147L159.98447259129995,533.1297079878628L164.88274664172616,546.5911705684698L163.26650133737581,547.989211650519L153.53758916439654,555.1299853154507L149.2126806950871,565.2419406093388L147.72619232217,568.8727928342059L137.67862119937502,570.6284070787791L133.8847849057471,571.2698692651524L118.933271174619,586.3605518106049L96.5844511660539,582.8808843355894L92.63200049474534,582.2017605606663L79.90662086003107,579.5516680877765L70.456591833436,583.9279148437029L67.43874667214641,585.1989757924856L59.23003538768734,592.1980770740023L50.837100817455564,588.7581675837458L45.92743042279358,580.2624965657282L45.769522162302735,580.2313000159526L43.388809004045584,566.708808442298L39.198448414621225,564.8441235049885L27.834585746230346,559.8479110392099L19.598017034561508,564.0385957187056L11.161269872587752,559.1497251683629L1.5856613632180938,559.4952917781569L5.734898386832981,548.93798001263L8.010483261977015,543.0839738496495L8.820139034149747,535.0535169788685L9.423054514727312,529.4364888111987L2.2294489048138644,525.5586017913236L0.12499428649010724,516.434126848202L4.567898058904007,502.6117095940748L11.872918140139348,497.0499365192676L13.19472653880888,496.10961556916595L16.38177900501273,487.538366662254L21.966451008318757,476.59659824838786L22.764116670539636,475.12012005735767L24.37441299781011,465.7558494659213L22.833021571108873,457.3336170918027L23.778757962410225,449.66377564595746L28.161754017968747,434.2315356760886L23.623434598706297,423.2086476383579L49.966955756592256,412.3516722847746L64.1999896191698,418.4616245637576L68.76864627880991,420.43305985996835L79.376957980687,422.3402421247147L90.39242831401367,424.4658865367878L106.83709632145536,431.43792484626715L115.42590247242055,432.1322300216068L120.44856486590106,432.58893450141113L125.80698783448975,433.70755407351066L146.58107564926416,437.7034921672689L156.96139073297127,425.482494330141L157.02261043737002,425.07886178048807L166.72519137450712,381.13731600364713L165.86970925953824,379.1341625049806L154.41834668241296,354.7875907816667L144.91164205248583,341.4746236344449L123.04325675103564,328.6050875601909L123.165689517403,327.1469670677716L124.55792959423997,311.7168150417697L144.9594573279922,310.2086873935807L150.55141055483824,312.6317568160662L169.28743231216097,320.28448410211286L168.60589732812255,293.4526829691715L181.2301498164737,305.57528992803054L218.5886011116052,292.2294679506376L223.31325819864992,279.4103287409305L225.36976968984132,273.6891264187532L238.79295251962148,270.37664392497095L251.07222812163582,267.04314125971064L254.22321313185017,265.027199968584L259.38449067050203,261.4996384041772L275.4664424849393,227.79273930140948L295.8628066054855,219.63407627392735L307.6026372404521,221.20401227713L310.78426371891055,216.4507843132585L322.7597120056987,215.9729088130514L324.9876338730187,221.31873846268854L335.4128568641381,210.01148933354898L333.1729909356427,202.48053590237555L332.6295927809907,200.92220692704132L332.72203409363283,197.21744176402422L332.81441909298024,187.1584899893212L328.66618911015667,175.04124128125704L328.03086998385055,173.23897651053585L328.16984434912985,171.04333537171738L329.2556332588172,148.07509496888179L331.8680039365274,141.55541924532758L336.19694257872595,134.44644682483477L348.1424393469413,133.54134361160845L348.91361632046755,132.6855529008576L353.18285101370475,127.07056680071446L360.3724641669574,122.68374007798161L364.1953909946182,120.37108978768902L363.6078695601388,128.879103225692L363.3135114358147,133.1218467142112L360.28369920336854,138.80564578790518L358.9627204904485,141.20292823772434L360.25030936349066,148.16235782653416L367.4485083360616,152.00634509151564L363.77091042969175,161.1731039042786L359.81650703966176,158.35360948082598L349.10900229493154,175.52550576976137L351.64056412251705,185.3134917726461L352.2899410911622,187.53586299259177L352.3236717714087,189.50859942822672L352.10402737123115,196.93225258144753L366.1586656928738,203.1907401611977L365.87802854936433,207.3159352568723L365.58073270363815,211.86884985466145L373.5672198601778,209.5397724926395L380.1124751738922,207.78040618683326L381.9328942901154,206.30784244434835L388.274708571748,201.23940926613L403.9785437269034,211.08767165928816L410.6671803287665,218.9631199771743L420.4108326903682,211.8558758866502L442.3200019970133,200.6449506600161L459.8314548582587,192.02872282774388L473.93262519866136,195.77591476049997L475.1413416306384,201.62562479087205L488.6949325107862,201.3233448387848L491.50546769610924,190.49742956924706L510.27524687532866,181.64207372134433L506.1386306380755,161.37358484654806L505.590263637722,142.74640319627815L511.2330887217447,126.9852551822778L511.3535195921286,126.97796729945844L523.286328659566,117.65954063639583L535.3525396644197,135.41428978342287L546.0737853690603,133.8820167643521L546.1012925600802,132.7598766608039L546.9880193399006,114.69604404583356L547.2719677517634,99.95415530309492L542.688386448631,103.52166736469349L533.9446309601009,95.36757618397291L533.6914469722803,95.1597007834423L531.3986570038915,80.7272755933518L547.2074960463581,72.30757667540502L554.1269650133487,70.06703002225231L563.0606534372455,67.12792826704504L577.3884376241327,69.99987837853723L590.5799908468491,67.5604232779217L592.7126611508864,64.9272461516066L599,64.9272461516066ZM470.2013300932205,64.9272461516066L460.55117316585,90.31178054326801L447.1483049881865,96.51563426634016L443.07355968666246,135.10386294533942L442.636563009005,138.68302462563383L435.17446248605063,161.86461475722172L418.534065012542,159.4724768094195L410.74124853412945,178.8329036496732L394.6328768526024,179.7127951948612L390.76986670804985,156.46958114395397L380.1714713368199,128.1165494053355L374.7377808113837,106.77873862974434L371.22153013452186,92.35997221223897L367.9343538006995,86.08120255846075L363.18389823831836,76.50782413266188L353.11060953539106,87.02331205223595L335.8481612117851,104.26069636976513L327.1179882455695,106.64694017625402L317.8808215672519,108.94154116501818L307.7787748965816,100.68683327020494L300.65842623520325,94.86491186060562L298.4997652091452,67.18977502303119L298.5538877360967,64.9272461516066L470.2013300932205,64.9272461516066Z" style="stroke: none; fill: rgb(144, 238, 144); fill-opacity: 1;"/></g><g class="layer countries"><path d="M599,140.12461108857968L596.9948937752125,135.44175800532707L594.3739677409897,123.62198727973328L587.3736718443508,118.79719766509402L592.0590853184962,110.1209108645894L585.4808818426606,87.4496931200481L592.9787376591646,71.88139019111759L590.5799908468491,67.5604232779217L592.7126611508864,64.9272461516066L599,64.9272461516066ZM531.9959920026342,201.2557920462898L506.18456513676244,203.30841699804182L488.6949325107862,201.3233448387848L491.50546769610924,190.49742956924706L510.27524687532866,181.64207372134433L525.0594051981816,185.10882031368828L531.4598489029299,188.3930433696894L530.5548091096836,195.24293264718494ZM386.00872800386776,64.9272461516066L377.45670693926917,77.96053118455757L371.22153013452186,92.35997221223897L363.18389823831836,76.50782413266188L335.8481612117851,104.26069636976513L317.8808215672519,108.94154116501818L300.65842623520325,94.86491186060562L298.4997652091452,67.18977502303119L298.5538877360967,64.9272461516066L386.00872800386776,64.9272461516066ZM289.6504136602791,315.23786635347915L296.39396877069066,321.8719881811003L317.98630136282196,327.585204950188L309.2355025854849,342.9217719883277L306.1635508970184,359.18767355149794L301.5527625026018,362.8159038999472L294.57486450339957,360.2188673681442L294.69498460647395,366.05274905151055L282.26981484619944,378.1499212056915L281.1370758331426,388.41336505291156L288.9404819880185,385.523085250672L293.5888961396675,395.80326638336305L292.5230052916578,402.32661823255626L296.49442087706876,411.06784589563995L290.4980551330601,417.616106702382L293.39744932967653,435.4819751098088L301.95982307349607,438.9569209337136L299.36475951599414,448.79867930233615L283.53645917934716,460.2892347336617L251.73627760699878,451.39070816302956L227.0977746504925,456.2167578183428L223.8273199921904,469.5488064355824L204.28224543085219,470.34128598859L187.04743630094714,457.7199818748576L180.48337495306976,461.75899220062126L151.69092796040252,447.3471293093837L146.58107564926416,437.7034921672689L156.96139073297127,425.482494330141L166.72519137450712,381.13731600364713L154.41834668241296,354.7875907816667L144.91164205248583,341.4746236344449L123.04325675103564,328.6050875601909L124.55792959423997,311.7168150417697L144.9594573279922,310.2086873935807L169.28743231216097,320.28448410211286L168.60589732812255,293.4526829691715L181.2301498164737,305.57528992803054L218.5886011116052,292.2294679506376L225.36976968984132,273.6891264187532L238.79295251962148,270.37664392497095L239.97397393311076,278.8353720820023L246.84483415506998,280.02908717419746L252.77145062835658,290.2357222702144L262.0098980988641,302.19850505063573L269.85965483105036,301.2626456837952L282.04390468114525,312.9168464586339L285.26392848938747,315.2972347210441ZM319.4633912433775,474.12832941568604L330.4933410721884,466.18427251481876L332.3510486166647,485.5879753226027L325.87550518678665,502.686166238355L318.5674049999226,497.6243644742759L315.5402787575715,482.2319559523105ZM470.1604224487235,64.9272461516066L460.55117316585,90.31178054326801L447.1483049881865,96.51563426634016L442.636563009005,138.68302462563383L435.17446248605063,161.86461475722172L418.534065012542,159.4724768094195L410.74124853412945,178.8329036496732L394.6328768526024,179.7127951948612L390.76986670804985,156.46958114395397L380.1714713368199,128.1165494053355L371.22153013452186,92.35997221223897L371.22153013452186,92.35997221223897L377.45670693926917,77.96053118455757L386.00872800386776,64.9272461516066L470.1604224487235,64.9272461516066ZM599,258.5063528959136L588.8849492933028,256.1520012316889L574.0318800862851,255.91927554679796L562.7916806203967,257.37729434343214L555.3145188056458,264.4359450775546L548.4114200972173,266.06138686445L547.3147105710725,255.4504260497199L541.9064529862811,244.9197034012525L550.2284080433019,239.31914896016383L549.5934079388829,229.87725927376732L544.8699355295944,220.94861773037678L543.4032397162379,210.42490922000343L557.041482436139,209.51679453929023L571.5510048507081,199.02160463084078L573.5014752914549,185.24618530124144L584.0574141143163,176.23646673232042L581.654371849341,165.44720380597437L589.4695263591957,160.38656645811648L599,152.6980459998293L599,258.5063528959136ZM599,340.2695460918058L595.6200715430874,340.62506804717145L592.2965527366083,346.4062385349823L581.1245716067149,349.5856621113005L576.1679832970656,353.59328967896226L568.4455950599607,348.6421813862298L558.5912974504968,349.46621122478086L548.8079287525161,347.51319296705947L542.504416778262,352.98038990464033L540.968373838475,347.0383656552988L532.0902937238626,341.1633035650177L534.363246565866,331.5940040767937L538.214293181321,325.45806928844854L541.5878856399556,326.4796473309964L537.0300690803032,316.29189079842877L549.2723126561276,295.97542759336307L556.4384099242002,292.6493124044805L557.5046746384846,285.98437113447994L548.4114200972173,266.06138686445L555.3145188056458,264.4359450775546L562.7916806203967,257.37729434343214L574.0318800862851,255.91927554679796L588.8849492933028,256.1520012316889L599,258.5063528959136L599,340.2695460918058ZM543.4032397162379,210.42490922000343L544.8699355295944,220.94861773037678L549.5934079388829,229.87725927376732L550.2284080433019,239.31914896016383L541.9064529862811,244.9197034012525L547.3147105710725,255.4504260497199L548.4114200972173,266.06138686445L557.5046746384846,285.98437113447994L556.4384099242002,292.6493124044805L549.2723126561276,295.97542759336307L537.0300690803032,316.29189079842877L541.5878856399556,326.4796473309964L538.214293181321,325.45806928844854L523.294552584242,317.3950447384477L512.5800539876374,321.3739073094787L505.2193486818144,319.2352991106138L496.5801760946953,324.68144154052675L488.59485052048944,316.82671819137636L482.44563856811874,320.21129074844293L481.5751326440434,318.7719440786889L474.1275957736804,307.4470936297762L462.9968427411625,306.4914396987567L461.3357873695278,299.1466216494882L451.05337430333304,296.6088448460264L448.9989932022063,302.7662608568696L440.7134306485078,298.021095680818L441.5809228893963,291.456637591971L430.44748595005973,289.6397322869366L423.3508546430467,282.02458619250115L417.4089220815786,266.9118954834548L418.6200695974821,258.803988485349L415.00924198173374,245.93895995457888L409.8696626911725,237.52226743226743L413.9246024822117,231.08822277183094L410.6671803287665,218.9631199771743L420.4108326903682,211.8558758866502L442.3200019970133,200.6449506600161L459.8314548582587,192.02872282774388L473.93262519866136,195.77591476049997L475.1413416306384,201.62562479087205L488.6949325107862,201.3233448387848L506.18456513676244,203.30841699804182L531.9959920026342,201.2557920462898L539.4067503588578,203.328413998903ZM453.6602752624643,351.312559216959L452.7157531299366,360.89929842015454L443.9097611683523,361.0303673447497L447.05519752986027,365.9727727884515L442.0326497700728,380.9526639986059L439.09720446409847,384.70368530747237L425.3488401525238,385.3963036024729L417.3909038505147,390.5502712397192L404.3247201341722,388.8055232406093L381.8807701806162,382.420377039472L378.55322489171306,374.26469939607273L362.91284658627046,377.92607771905773L360.91976374488803,382.20033171449495L351.57656035584654,378.5237654301402L343.5562278497694,377.54753382462104L336.70940414154825,373.0695653559119L339.37854392096995,367.6013994318364L339.0231628262218,363.4297071432045L343.70126830187337,362.4088272167978L351.4048592823464,369.1898705764645L353.76667787351334,363.0592552402286L367.4498497128693,364.6032263466277L378.7662538317638,360.7829492244491L386.1558868650014,361.7919690341464L390.9639730488225,366.45839222684367L392.4378780029069,362.54090934395526L390.49106265885223,347.5211624388744L396.0850491621358,344.7010824231993L401.75945406626755,334.1294104152066L412.9939393536385,341.75876953333227L421.70831216515626,332.1740719253921L427.0628403609986,330.4954818585022L438.93416319487824,337.5374341640602L446.0844254061409,336.20016637798335L453.1873175118044,340.4755905899244L451.99493795071254,343.419422087871ZM532.0902937238626,341.1633035650177L540.968373838475,347.0383656552988L542.504416778262,352.98038990464033L533.3675903106142,358.6024261062139L527.05469122315,374.5820716188225L518.4699490495613,390.60302141733314L505.8742709477899,395.5889609487185L495.9873265786278,395.00334588458986L484.0826727708793,401.647849712838L478.17476424467964,405.1395392432389L465.01671115773945,401.18424241261005L452.966934733518,391.5397286259954L447.8023697564993,388.73182837788863L444.72240272426455,381.12767666251193L442.0326497700728,380.9526639986059L447.05519752986027,365.9727727884515L443.9097611683523,361.0303673447497L452.7157531299366,360.89929842015454L453.6602752624643,351.312559216959L461.71968029552215,357.183363387059L467.50297925763596,359.5366484630438L480.39108264960436,356.2368501223243L481.48679260034834,351.6187416180969L487.5786613957172,350.771202638015L494.9289689213357,346.9285647047991L496.656173969555,348.31375223198256L503.86772892371175,345.061124646468L507.19475948523854,339.4661840321605L512.0845155184965,337.7490097770551L528.9325952569584,343.87373123572183ZM599,442.09963625737174L595.9950201397619,444.70252407812495L571.9655980958796,445.65188431316926L559.0738453104237,443.2081861748733L552.8891359751457,445.30775570241155L547.5472459066036,436.4820610033721L544.3461978631931,432.60761515505374L547.8591788397663,428.4668493059089L543.6067033353675,426.0966781076222L538.8474551240599,431.33783749691975L529.1329962123721,425.3889833638116L527.2657204355716,416.0563309573479L517.1617486558641,411.2853567768036L515.0536978312834,404.1949336922662L505.8742709477899,395.5889609487185L518.4699490495613,390.60302141733314L527.05469122315,374.5820716188225L533.3675903106142,358.6024261062139L542.504416778262,352.98038990464033L548.8079287525161,347.51319296705947L558.5912974504968,349.46621122478086L568.4455950599607,348.6421813862298L576.1679832970656,353.59328967896226L581.1245716067149,349.5856621113005L592.2965527366083,346.4062385349823L595.6200715430874,340.62506804717145L599,340.2695460918058L599,442.09963625737174ZM581.654371849341,165.44720380597437L584.0574141143163,176.23646673232042L573.5014752914549,185.24618530124144L571.5510048507081,199.02160463084078L557.041482436139,209.51679453929023L543.4032397162379,210.42490922000343L539.4067503588578,203.328413998903L531.9959920026342,201.2557920462898L530.5548091096836,195.24293264718494L531.4598489029299,188.3930433696894L525.0594051981816,185.10882031368828L510.27524687532866,181.64207372134433L506.1386306380755,161.37358484654806L521.4152023507103,152.90444795798248L544.3278499847676,152.7636571466005L557.4615929447538,149.18392799750814L559.8852153639298,154.07726838917642L567.270772502232,154.93363089138484ZM599,152.6980459998293L589.4695263591957,160.38656645811648L581.654371849341,165.44720380597437L567.270772502232,154.93363089138484L559.8852153639298,154.07726838917642L557.4615929447538,149.18392799750814L544.3278499847676,152.7636571466005L521.4152023507103,152.90444795798248L506.1386306380755,161.37358484654806L505.590263637722,142.74640319627815L511.3535195921286,126.97796729945844L523.286328659566,117.65954063639583L535.3525396644197,135.41428978342287L546.0737853690603,133.8820167643521L546.9880193399006,114.69604404583356L557.929693993609,109.42075194453923L563.924121434836,111.78761567076344L576.3280866140881,119.78159998200317L587.3736718443508,118.79719766509402L587.3736718443508,118.79719766509402L594.3739677409897,123.62198727973328L596.9948937752125,135.44175800532707L599,140.12461108857968L599,152.6980459998293ZM590.5799908468491,67.5604232779217L592.9787376591646,71.88139019111759L585.4808818426606,87.4496931200481L592.0590853184962,110.1209108645894L587.3736718443508,118.79719766509402L576.3280866140881,119.78159998200317L563.924121434836,111.78761567076344L557.929693993609,109.42075194453923L546.9880193399006,114.69604404583356L547.2719677517634,99.95415530309492L542.688386448631,103.52166736469349L533.6914469722803,95.1597007834423L531.3986570038915,80.7272755933518L547.2074960463581,72.30757667540502L563.0606534372455,67.12792826704504L577.3884376241327,69.99987837853723ZM410.6671803287665,218.9631199771743L413.9246024822117,231.08822277183094L409.8696626911725,237.52226743226743L415.00924198173374,245.93895995457888L418.6200695974821,258.803988485349L417.4089220815786,266.9118954834548L423.3508546430467,282.02458619250115L416.81160744408794,284.55791460897854L412.9587409458647,281.7801303681006L409.18984414680006,286.20616167490357L398.4314580166891,290.7378911181811L392.832344417312,296.3542356403964L381.8154359599166,301.1812107631779L384.21197802484085,308.199016992118L385.6118144203019,318.11943413791096L393.2752118712184,323.9438583618328L401.75945406626755,334.1294104152066L396.0850491621358,344.7010824231993L390.49106265885223,347.5211624388744L392.4378780029069,362.54090934395526L390.9639730488225,366.45839222684367L386.1558868650014,361.7919690341464L378.7662538317638,360.7829492244491L367.4498497128693,364.6032263466277L353.76667787351334,363.0592552402286L351.4048592823464,369.1898705764645L343.70126830187337,362.4088272167978L339.0231628262218,363.4297071432045L322.789664646704,355.46980093923366L319.27946846868394,360.2531779134447L306.1635508970184,359.18767355149794L309.2355025854849,342.9217719883277L317.98630136282196,327.585204950188L296.39396877069066,321.8719881811003L289.6504136602791,315.23786635347915L291.42977309042243,305.04767040741785L288.7544839522319,299.5454363219417L291.7915883271728,283.8941409036056L291.3141051704862,258.90117950114586L300.11575541974025,259.6071476218053L304.4671847654177,250.93890482539314L309.7003948095513,229.5802080853939L307.6026372404521,221.20401227713L310.78426371891055,216.4507843132585L322.7597120056987,215.9729088130514L324.9876338730187,221.31873846268854L335.4128568641381,210.01148933354898L332.6295927809907,200.92220692704132L332.81441909298024,187.1584899893212L343.18986093871194,190.80667498359344L352.2899410911622,187.53586299259177L352.10402737123115,196.93225258144753L366.1586656928738,203.1907401611977L365.58073270363815,211.86884985466145L380.1124751738922,207.78040618683326L388.274708571748,201.23940926613L403.9785437269034,211.08767165928816ZM599,499.46517607336125L595.0124567342103,500.4483630946978L582.5200849421437,493.66293263146076L569.5991224971428,501.03518680616867L557.1254168067585,501.1796095888029L554.8459673039541,486.53373376036257L545.9415769952442,479.8437303620533L548.5731588807397,476.61305838595615L546.5870073447284,473.90194963009344L548.7749663957994,466.6247078081816L554.6384514545332,459.0687694144723L545.9780789733959,449.88673180398337L543.9516856210204,441.848447689694L547.5472459066036,436.4820610033721L547.5472459066036,436.4820610033721L552.8891359751457,445.30775570241155L559.0738453104237,443.2081861748733L571.9655980958796,445.65188431316926L595.9950201397619,444.70252407812495L599,442.09963625737174L599,499.46517607336125ZM577.2248235393071,635.0727538483934L579.7179471468713,625.486046012299L590.2203124577751,632.2315026464335L599,630.5608959367152L599,635.0727538483934ZM599,508.3497953055771L591.061049296294,507.306131667671L571.1678138265438,514.888105908463L583.9866904072373,526.3606902920782L575.5340907867486,530.7111421331855L565.9957559458771,531.4678650806168L556.2453509140134,520.6759422371448L553.3712417091982,525.7301942497465L558.1783625105338,538.9126174433667L567.4749952867301,548.7045772577611L561.3042525965748,554.003427790775L571.775177902322,563.6777654877119L580.9146721389991,569.3792125494394L582.2761702934611,581.935949761975L565.5440368501181,577.227659223617L571.6275928679996,588.2159266052992L560.5239293827451,591.2511301359567L568.6598113175044,610.3114461924416L556.9759610965056,611.5532287233455L541.7790148871042,602.9250666477574L534.0376473540169,585.5405840402524L530.0376968765089,570.9125509529123L522.741821733298,561.0607051215652L513.2145643314994,548.6661804474743L511.83247240428653,542.4906711622411L519.1656198766976,531.244167589758L519.8645686715836,523.9433950038319L525.2035237240812,520.4257745289232L525.1750370075283,514.364967933028L536.1914372207243,511.9021159036563L542.2586802102169,506.4598579517184L551.545563404834,506.23884494176275L554.0040449279375,502.2159926558877L557.1254168067585,501.1796095888029L557.1254168067585,501.1796095888029L569.5991224971428,501.03518680616867L582.5200849421437,493.66293263146076L595.0124567342103,500.4483630946978L599,499.46517607336125L599,508.3497953055771ZM525.1750370075283,514.364967933028L525.2035237240812,520.4257745289232L519.8645686715836,523.9433950038319L519.1656198766976,531.244167589758L511.83247240428653,542.4906711622411L508.817785546673,541.0198039071953L508.2790858808788,536.0073854389635L498.41293753898043,528.9728377912182L496.4526255787228,518.3556524302398L497.3593679156222,502.955884561762L499.34524487038004,495.99027387391413L496.33101465671825,492.4665248486632L494.99595860044747,485.4226826431143L501.71299410699305,473.9745648898247L502.94482088625426,478.187748867129L507.3341285268567,475.95677159953686L511.21238061025844,481.8661250171857L515.2296701324542,484.1027498111299L516.8456013527704,492.1351337937796L514.9716696626624,499.9305113334211L517.8806236010682,509.29494116773014ZM447.8023697564993,388.73182837788863L452.966934733518,391.5397286259954L465.01671115773945,401.18424241261005L478.17476424467964,405.1395392432389L484.0826727708793,401.647849712838L488.27809123797226,410.3439759260168L493.56940879286805,416.5080668918322L487.8225707592816,425.34695613476447L480.25478790010465,420.4831198668837L469.12268618895285,421.22114859835733L455.3013386529044,417.8369171004615L447.79390516253414,418.3693059252314L444.3824211951137,423.131044263361L438.54047212988644,418.06490197285825L435.2820819187377,427.5204342202726L443.24802587672156,438.08707864251085L446.8484155297296,444.98798072046566L454.4816542593394,453.4379299627692L460.92393316075686,458.2038101388797L467.3672494042673,467.6227101021027L482.2070682849924,475.7344399579906L480.53167236225397,479.4439878451551L464.6327900787177,471.5508170256019L454.9570761657244,463.6132380857516L439.77064178316033,457.09979880351295L426.0051196095253,440.6511650573374L429.218855935026,438.80405082803236L421.91477158993916,429.4047843912847L421.63065857123576,421.61890815824177L411.2294793646192,418.0919998802765L406.2237029742801,427.68558367190826L401.5228019541538,420.0503985790176L402.05126882817274,412.25641577490455L402.6321838806777,411.85246765479155L413.71491078879126,412.76948218486905L416.75456348827754,408.8790321895817L422.0706354998922,412.5892905543369L428.4098839036731,412.9924982046314L428.24710306942336,406.62154035331355L433.8316706493492,404.33328045205485L435.3431397377003,395.05473288091844ZM339.0231628262218,363.4297071432045L339.37854392096995,367.6013994318364L336.70940414154825,373.0695653559119L343.5562278497694,377.54753382462104L351.57656035584654,378.5237654301402L349.90049775186174,387.9666251921244L342.7693446735349,391.36571864102143L331.2577471023769,387.8968952456223L327.33574365013317,396.9746697443518L319.7214354963057,397.36053434211794L317.2361311661243,393.49467899295723L307.88447931537996,400.7368379004424L300.08714423403836,401.23100342638554L293.5888961396675,395.80326638336305L288.9404819880185,385.523085250672L281.1370758331426,388.41336505291156L282.26981484619944,378.1499212056915L294.69498460647395,366.05274905151055L294.57486450339957,360.2188673681442L301.5527625026018,362.8159038999472L306.1635508970184,359.18767355149794L319.27946846868394,360.2531779134447L322.789664646704,355.46980093923366ZM288.7544839522319,299.5454363219417L291.42977309042243,305.04767040741785L289.6504136602791,315.23786635347915L285.26392848938747,315.2972347210441L282.04390468114525,312.9168464586339L284.77726418304604,300.05865069638617ZM291.7915883271728,283.8941409036056L288.7544839522319,299.5454363219417L284.77726418304604,300.05865069638617L282.04390468114525,312.9168464586339L269.85965483105036,301.2626456837952L262.0098980988641,302.19850505063573L252.77145062835658,290.2357222702144L246.84483415506998,280.02908717419746L239.97397393311076,278.8353720820023L238.79295251962148,270.37664392497095L251.07222812163582,267.04314125971064L261.7089808298723,270.076238870251L275.7873073753341,266.52342850570085L284.13046423516914,277.7209311701947ZM307.6026372404521,221.20401227713L309.7003948095513,229.5802080853939L304.4671847654177,250.93890482539314L300.11575541974025,259.6071476218053L291.3141051704862,258.90117950114586L291.7915883271728,283.8941409036056L284.13046423516914,277.7209311701947L275.7873073753341,266.52342850570085L261.7089808298723,270.076238870251L251.07222812163582,267.04314125971064L259.38449067050203,261.4996384041772L275.44610750198,228.00717345351586L295.8628066054855,219.63407627392735ZM23.778757962410225,449.66377564595746L31.03620767299168,445.4684169475778L38.33118570560964,443.74523115889747L40.14212057919491,455.328805020485L49.74028258095012,457.36146170740244L53.12345564919286,455.170081128379L62.56038745265516,457.92704838970985L64.97046052639871,469.76012991457935L56.13721737170181,474.3729315193501L52.376472755345446,491.3162268256957L49.01885408042892,493.92084037943687L46.267498977761306,504.2499624249285L38.62092898140463,504.51203532484374L42.580023456718095,519.0913341872687L35.00528633892054,532.4872198562705L39.527582846416465,540.1801375719592L35.99318113373249,545.5913055030745L27.90971869636752,552.5009236513641L27.834585746230346,559.8479110392099L19.598017034561508,564.0385957187056L11.161269872587752,559.1497251683629L1.5856613632180938,559.4952917781569L8.010483261977015,543.0839738496495L9.423054514727312,529.4364888111987L2.2294489048138644,525.5586017913236L0.12499428649010724,516.434126848202L4.567898058904007,502.6117095940748L13.19472653880888,496.10961556916595L16.38177900501273,487.538366662254L22.764116670539636,475.12012005735767L24.37441299781011,465.7558494659213L22.833021571108873,457.3336170918027ZM27.834585746230346,559.8479110392099L27.90971869636752,552.5009236513641L35.99318113373249,545.5913055030745L39.527582846416465,540.1801375719592L35.00528633892054,532.4872198562705L42.580023456718095,519.0913341872687L38.62092898140463,504.51203532484374L46.267498977761306,504.2499624249285L49.01885408042892,493.92084037943687L52.376472755345446,491.3162268256957L56.13721737170181,474.3729315193501L64.97046052639871,469.76012991457935L62.56038745265516,457.92704838970985L53.12345564919286,455.170081128379L49.74028258095012,457.36146170740244L40.14212057919491,455.328805020485L38.33118570560964,443.74523115889747L31.03620767299168,445.4684169475778L23.778757962410225,449.66377564595746L28.161754017968747,434.2315356760886L23.623434598706297,423.2086476383579L49.966955756592256,412.3516722847746L68.76864627880991,420.43305985996835L90.39242831401367,424.4658865367878L106.83709632145536,431.43792484626715L120.44856486590106,432.58893450141113L146.58107564926416,437.7034921672689L151.69092796040252,447.3471293093837L180.48337495306976,461.75899220062126L187.04743630094714,457.7199818748576L204.28224543085219,470.34128598859L223.8273199921904,469.5488064355824L223.27544034319888,482.7443653302362L205.62821276652699,495.7875517490925L183.60841862945594,497.71484145573163L181.09436892600465,505.1206112058693L169.1058703194016,515.9130235495147L159.98447259129995,533.1297079878628L164.88274664172616,546.5911705684698L153.53758916439654,555.1299853154507L147.72619232217,568.8727928342059L133.8847849057471,571.2698692651524L118.933271174619,586.3605518106049L96.5844511660539,582.8808843355894L79.90662086003107,579.5516680877765L67.43874667214641,585.1989757924856L59.23003538768734,592.1980770740023L50.837100817455564,588.7581675837458L45.769522162302735,580.2313000159526L43.388809004045584,566.708808442298ZM124.00010135446735,186.97310764344115L123.06339536194423,204.40957423215787L108.19026021235396,223.1239496120429L79.91582669026553,231.55278883513665L60.50435418212538,223.43643815631413L77.53950618913211,201.86020776284386L75.68387653223641,176.4148611599294L98.5363638652355,162.14569796747628L111.24533197590489,153.23618038270638L111.4345696128724,166.45428731482707L105.90253562349272,178.63566624657346L114.47422473123214,179.97008736392627ZM351.57656035584654,378.5237654301402L360.91976374488803,382.20033171449495L362.91284658627046,377.92607771905773L378.55322489171306,374.26469939607273L381.8807701806162,382.420377039472L404.3247201341722,388.8055232406093L402.4842882494395,400.12570206366945L406.10799186296146,409.8350388122017L393.5087266699269,406.375956536335L380.3953251487484,414.11920878767614L380.9894437576535,425.41724800307L378.7930480444407,431.9168577517037L383.9289316754893,443.4875063166787L399.022243749204,455.18042060753487L407.11988734023817,473.9887956690933L425.48586446224,492.3138067497662L438.5894523280071,492.0473245725466L442.7102343106343,497.070150240879L438.06447047590865,501.56572818034545L453.33677066136903,509.4653852352419L465.8111964813709,516.0867713352544L480.8165389490665,527.1823561816038L482.6404579958753,531.358858016575L479.6525664210596,539.5104332339428L469.9613014427242,529.3022421566939L454.989197770424,525.9901480917331L447.9706001628184,540.6021061056098L460.65968900795554,548.6402699675186L458.86102322781284,560.3326140020591L451.53455410160046,561.6618802684578L442.5033958602694,581.0360420660446L435.2466337336866,582.6991806544424L435.2035212263319,575.8833439728247L438.72969922870476,564.019378246783L442.43805068133423,559.1655823144777L435.48211351238814,546.3598569504748L430.16605325775214,535.1163405294423L423.0740068572545,532.3094907868266L418.1737859096126,522.6266676172793L407.18243380614854,518.5291470854871L399.96250475348336,509.364852793336L387.5226625349834,507.7510874473098L374.5759462858782,497.33879465748464L359.68823166742317,482.08288095411604L348.9905993537765,468.670863334018L344.7748015844266,446.07036015124106L336.8199795854796,443.24952563381703L324.0539860910083,435.01209703803454L316.2831081716831,437.6293689029354L306.2499152541878,447.42570134955463L299.36475951599414,448.79867930233615L301.95982307349607,438.9569209337136L293.39744932967653,435.4819751098088L290.4980551330601,417.616106702382L296.49442087706876,411.06784589563995L292.5230052916578,402.32661823255626L293.5888961396675,395.80326638336305L300.08714423403836,401.23100342638554L307.88447931537996,400.7368379004424L317.2361311661243,393.49467899295723L319.7214354963057,397.36053434211794L327.33574365013317,396.9746697443518L331.2577471023769,387.8968952456223L342.7693446735349,391.36571864102143L349.90049775186174,387.9666251921244ZM418.9723762734288,577.5210193664382L432.20915230219487,575.6993957113631L425.933048864265,593.1520609672524L428.65504015940377,599.9523252661612L424.99670057313784,611.561676009915L411.4055355977884,603.1261232540489L402.32300886938907,600.6482878832784L377.85751205284,588.8144240889521L380.6499239959222,577.4530471358429L401.12690469500706,579.804344742585ZM316.62332494994007,512.8970419105747L325.36828073378996,506.50496402700924L334.7908432899006,522.7455150454235L330.89141200504116,552.1819170739059L323.1875352653371,550.3795856186686L315.6151417203442,557.4074386556922L309.4146423419285,551.2073297462628L310.4294458010512,524.2505788250048L307.40802902528594,511.12730997742926ZM352.2899410911622,187.53586299259177L343.18986093871194,190.80667498359344L332.81441909298024,187.1584899893212L328.03086998385055,173.23897651053585L329.2556332588172,148.07509496888179L331.8680039365274,141.55541924532758L336.19694257872595,134.44644682483477L348.1424393469413,133.54134361160845L353.18285101370475,127.07056680071446L364.1953909946182,120.37108978768902L363.3135114358147,133.1218467142112L358.9627204904485,141.20292823772434L360.25030936349066,148.16235782653416L367.4485083360616,152.00634509151564L363.77091042969175,161.1731039042786L359.81650703966176,158.35360948082598L349.10900229493154,175.52550576976137ZM387.08900219884924,161.2558545018344L391.26469364335446,173.70813501708813L382.4096735742309,193.23714510641162L368.307683215417,178.9856094697452L366.6931304841881,168.79786967438895ZM124.00010135446735,186.97310764344115L114.47422473123214,179.97008736392627L105.90253562349272,178.63566624657346L111.4345696128724,166.45428731482707L111.24533197590489,153.23618038270638L122.87373546022587,154.51656881521035L134.6442484566145,172.21343025765327ZM169.9815174336677,192.4653729394554L163.06575231901598,176.28915289369957L163.01553182817435,175.83775134219263L146.98045851801407,168.7611335920767L144.84014321259298,161.69014711553655L151.87347442196238,151.83229895678483L148.59278786588283,144.28538503353911L139.09250578317574,154.35606230959297L142.80327841439555,131.046771561819L138.4864840457352,117.31531357687254L148.15716032894068,92.98473959718672L161.99645294907708,74.91384166547732L171.98022386670584,78.80718436182838L187.9354180534239,79.49009072187141L169.36300962007152,103.76486597021653L183.44014749476977,102.77240527988033L197.7818355321788,105.0989077437664L191.1352888316132,124.65605702688708L175.4806797539378,144.3427507752026L189.26468289380858,148.15759272328205L189.95247093782552,150.9463251765826L197.84109979826917,181.22187004165198L206.78463628099925,186.49271673804765L211.7026113133735,214.98311672467457L214.42912683219373,224.70231518857895L231.21364315508393,231.62905182629083L227.53274173912124,246.5031549109624L219.36431531590122,252.35727804315502L223.58764194009535,265.34053789133304L208.77922394453861,275.8300316943455L189.18111301737852,272.87709916104654L163.02173321828275,275.2684338093859L156.98587726231324,269.7763142209576L145.33539346741844,278.9444640247391L132.13702731086295,273.82078314364685L120.16483662852659,280.61388796310825L113.19313713057244,274.5647570517376L139.17165537968634,254.4345346455268L153.13672026384597,251.70027535701252L153.04179915724268,251.46827455386529L131.0240279291486,243.65206556501016L128.72943002767454,233.676370759498L145.05067294233845,229.06053371711118L139.51794896109038,214.9780826542035L144.97654313448874,200.2004889003697L165.51434590697477,205.9834088955804ZM404.3247201341722,388.8055232406093L417.3909038505147,390.5502712397192L425.3488401525238,385.3963036024729L439.09720446409847,384.70368530747237L442.0326497700728,380.9526639986059L444.72240272426455,381.12767666251193L447.8023697564993,388.73182837788863L435.3431397377003,395.05473288091844L433.8316706493492,404.33328045205485L428.24710306942336,406.62154035331355L428.4098839036731,412.9924982046314L422.0706354998922,412.5892905543369L416.75456348827754,408.8790321895817L413.71491078879126,412.76948218486905L402.6321838806777,411.85246765479155L406.10799186296146,409.8350388122017L402.4842882494395,400.12570206366945ZM538.214293181321,325.45806928844854L534.363246565866,331.5940040767937L532.0902937238626,341.1633035650177L528.9325952569584,343.87373123572183L512.0845155184965,337.7490097770551L507.19475948523854,339.4661840321605L503.86772892371175,345.061124646468L496.656173969555,348.31375223198256L494.9289689213357,346.9285647047991L487.5786613957172,350.771202638015L481.48679260034834,351.6187416180969L480.39108264960436,356.2368501223243L467.50297925763596,359.5366484630438L461.71968029552215,357.183363387059L453.6602752624643,351.312559216959L451.99493795071254,343.419422087871L453.1873175118044,340.4755905899244L455.2957720492874,335.2114130676689L462.0500066851721,335.4855769167036L467.22033351621326,333.0554281352902L467.5711775554161,330.74337519588835L470.4241456738232,329.6173955596191L471.3689690339097,324.3497967986809L474.7548890773844,323.19859318668205L476.94109228031124,318.9296740271918L481.5751326440434,318.7719440786889L482.44563856811874,320.21129074844293L488.59485052048944,316.82671819137636L496.5801760946953,324.68144154052675L505.2193486818144,319.2352991106138L512.5800539876374,321.3739073094787L523.294552584242,317.3950447384477ZM423.3508546430467,282.02458619250115L430.44748595005973,289.6397322869366L441.5809228893963,291.456637591971L440.7134306485078,298.021095680818L448.9989932022063,302.7662608568696L451.05337430333304,296.6088448460264L461.3357873695278,299.1466216494882L462.9968427411625,306.4914396987567L474.1275957736804,307.4470936297762L481.5751326440434,318.7719440786889L476.94109228031124,318.9296740271918L474.7548890773844,323.19859318668205L471.3689690339097,324.3497967986809L470.4241456738232,329.6173955596191L467.5711775554161,330.74337519588835L467.22033351621326,333.0554281352902L462.0500066851721,335.4855769167036L455.2957720492874,335.2114130676689L453.1873175118044,340.4755905899244L446.0844254061409,336.20016637798335L438.93416319487824,337.5374341640602L427.0628403609986,330.4954818585022L421.70831216515626,332.1740719253921L412.9939393536385,341.75876953333227L401.75945406626755,334.1294104152066L393.2752118712184,323.9438583618328L385.6118144203019,318.11943413791096L384.21197802484085,308.199016992118L381.8154359599166,301.1812107631779L392.832344417312,296.3542356403964L398.4314580166891,290.7378911181811L409.18984414680006,286.20616167490357L412.9587409458647,281.7801303681006L416.81160744408794,284.55791460897854ZM482.2070682849924,475.7344399579906L467.3672494042673,467.6227101021027L460.92393316075686,458.2038101388797L454.4816542593394,453.4379299627692L446.8484155297296,444.98798072046566L443.24802587672156,438.08707864251085L435.2820819187377,427.5204342202726L438.54047212988644,418.06490197285825L444.3824211951137,423.131044263361L447.79390516253414,418.3693059252314L455.3013386529044,417.8369171004615L469.12268618895285,421.22114859835733L480.25478790010465,420.4831198668837L487.8225707592816,425.34695613476447L493.62623244563326,425.12346866353505L489.9429808761433,435.3024989568587L498.18494637616084,443.55928235113504L496.13436741682744,454.4625384342887L492.3384417098281,455.6331674470812L489.31398018408447,457.7859169682787L484.16661775840157,463.0606555924212ZM545.9415769952442,479.8437303620533L554.8459673039541,486.53373376036257L557.1254168067585,501.1796095888029L554.0040449279375,502.2159926558877L551.545563404834,506.23884494176275L542.2586802102169,506.4598579517184L536.1914372207243,511.9021159036563L525.1750370075283,514.364967933028L517.8806236010682,509.29494116773014L514.9716696626624,499.9305113334211L516.8456013527704,492.1351337937796L518.9648934575071,492.2276610344436L519.4714364036089,487.5357451698933L529.0348982934602,483.5522407257083L532.7335484104574,482.5200178449028L538.3363262424048,480.75021632721166ZM484.0826727708793,401.647849712838L495.9873265786278,395.00334588458986L505.8742709477899,395.5889609487185L515.0536978312834,404.1949336922662L517.1617486558641,411.2853567768036L527.2657204355716,416.0563309573479L529.1329962123721,425.3889833638116L538.8474551240599,431.33783749691975L543.6067033353675,426.0966781076222L547.8591788397663,428.4668493059089L544.3461978631931,432.60761515505374L547.5472459066036,436.4820610033721L543.9516856210204,441.848447689694L545.9780789733959,449.88673180398337L554.6384514545332,459.0687694144723L548.7749663957994,466.6247078081816L546.5870073447284,473.90194963009344L548.5731588807397,476.61305838595615L545.9415769952442,479.8437303620533L538.3363262424048,480.75021632721166L532.7335484104574,482.5200178449028L532.0246689026945,480.73442956059364L533.9587615947397,477.97507809771105L535.411364730721,472.3944178400383L533.0397744572274,472.7440409338569L529.657986672791,468.6738631537215L526.9230082042004,467.8159916473031L524.4873579745955,464.2898382660934L521.2946468642817,463.0415602388691L518.7494222507663,459.9191181490952L516.0118349564461,461.4896149676937L514.0219421465104,469.1248530440205L510.23353289461147,470.9396413476193L511.4736703925831,468.84485486127244L504.86638182565946,464.47634458292396L499.422118144327,462.2727448222788L496.92579922526835,459.32189589150005L492.3384417098281,455.6331674470812L496.13436741682744,454.4625384342887L498.18494637616084,443.55928235113504L489.9429808761433,435.3024989568587L493.62623244563326,425.12346866353505L487.8225707592816,425.34695613476447L493.56940879286805,416.5080668918322L488.27809123797226,410.3439759260168ZM507.3341285268567,475.95677159953686L502.94482088625426,478.187748867129L501.71299410699305,473.9745648898247L494.99595860044747,485.4226826431143L496.33101465671825,492.4665248486632L492.8039830073916,490.9833422643485L487.87715380385345,483.8645954713354L480.53167236225397,479.4439878451551L482.2070682849924,475.7344399579906L484.16661775840157,463.0606555924212L489.31398018408447,457.7859169682787L492.3384417098281,455.6331674470812L496.92579922526835,459.32189589150005L499.422118144327,462.2727448222788L504.86638182565946,464.47634458292396L511.4736703925831,468.84485486127244L510.23353289461147,470.9396413476193ZM516.8456013527704,492.1351337937796L515.2296701324542,484.1027498111299L511.21238061025844,481.8661250171857L507.3341285268567,475.95677159953686L510.23353289461147,470.9396413476193L514.0219421465104,469.1248530440205L516.0118349564461,461.4896149676937L518.7494222507663,459.9191181490952L521.2946468642817,463.0415602388691L524.4873579745955,464.2898382660934L526.9230082042004,467.8159916473031L529.657986672791,468.6738631537215L533.0397744572274,472.7440409338569L535.411364730721,472.3944178400383L533.9587615947397,477.97507809771105L532.0246689026945,480.73442956059364L532.7335484104574,482.5200178449028L529.0348982934602,483.5522407257083L519.4714364036089,487.5357451698933L518.9648934575071,492.2276610344436Z" style="fill: none; stroke-miterlimit: 2; stroke: rgb(68, 68, 68); stroke-opacity: 1; stroke-width: 1px;"/></g><g class="layer backplot"><g class="choroplethlayer"><g class="trace choropleth"><path class="choroplethlocation" fill="rgb(103, 2, 166)" d="M291.7915883271728,283.8941409036056L288.7544839522319,299.5454363219417L284.77726418304604,300.05865069638617L282.04390468114525,312.9168464586339L269.85965483105036,301.2626456837952L262.0098980988641,302.19850505063573L252.77145062835658,290.2357222702144L246.84483415506998,280.02908717419746L239.97397393311076,278.8353720820023L238.79295251962148,270.37664392497095L251.07222812163582,267.04314125971064L261.7089808298723,270.076238870251L275.7873073753341,266.52342850570085L284.13046423516914,277.7209311701947Z" style="stroke: rgb(68, 68, 68); stroke-opacity: 1; stroke-width: 1px; opacity: 1;"/><path class="choroplethlocation" fill="rgb(96, 2, 164)" d="M289.6504136602791,315.23786635347915L296.39396877069066,321.8719881811003L317.98630136282196,327.585204950188L309.2355025854849,342.9217719883277L306.1635508970184,359.18767355149794L301.5527625026018,362.8159038999472L294.57486450339957,360.2188673681442L294.69498460647395,366.05274905151055L282.26981484619944,378.1499212056915L281.1370758331426,388.41336505291156L288.9404819880185,385.523085250672L293.5888961396675,395.80326638336305L292.5230052916578,402.32661823255626L296.49442087706876,411.06784589563995L290.4980551330601,417.616106702382L293.39744932967653,435.4819751098088L301.95982307349607,438.9569209337136L299.36475951599414,448.79867930233615L283.53645917934716,460.2892347336617L251.73627760699878,451.39070816302956L227.0977746504925,456.2167578183428L223.8273199921904,469.5488064355824L204.28224543085219,470.34128598859L187.04743630094714,457.7199818748576L180.48337495306976,461.75899220062126L151.69092796040252,447.3471293093837L146.58107564926416,437.7034921672689L156.96139073297127,425.482494330141L166.72519137450712,381.13731600364713L154.41834668241296,354.7875907816667L144.91164205248583,341.4746236344449L123.04325675103564,328.6050875601909L124.55792959423997,311.7168150417697L144.9594573279922,310.2086873935807L169.28743231216097,320.28448410211286L168.60589732812255,293.4526829691715L181.2301498164737,305.57528992803054L218.5886011116052,292.2294679506376L225.36976968984132,273.6891264187532L238.79295251962148,270.37664392497095L239.97397393311076,278.8353720820023L246.84483415506998,280.02908717419746L252.77145062835658,290.2357222702144L262.0098980988641,302.19850505063573L269.85965483105036,301.2626456837952L282.04390468114525,312.9168464586339L285.26392848938747,315.2972347210441ZM319.4633912433775,474.12832941568604L330.4933410721884,466.18427251481876L332.3510486166647,485.5879753226027L325.87550518678665,502.686166238355L318.5674049999226,497.6243644742759L315.5402787575715,482.2319559523105Z" style="stroke: rgb(68, 68, 68); stroke-opacity: 1; stroke-width: 1px; opacity: 1;"/><path class="choroplethlocation" fill="rgb(103, 2, 166)" d="M410.6671803287665,218.9631199771743L413.9246024822117,231.08822277183094L409.8696626911725,237.52226743226743L415.00924198173374,245.93895995457888L418.6200695974821,258.803988485349L417.4089220815786,266.9118954834548L423.3508546430467,282.02458619250115L416.81160744408794,284.55791460897854L412.9587409458647,281.7801303681006L409.18984414680006,286.20616167490357L398.4314580166891,290.7378911181811L392.832344417312,296.3542356403964L381.8154359599166,301.1812107631779L384.21197802484085,308.199016992118L385.6118144203019,318.11943413791096L393.2752118712184,323.9438583618328L401.75945406626755,334.1294104152066L396.0850491621358,344.7010824231993L390.49106265885223,347.5211624388744L392.4378780029069,362.54090934395526L390.9639730488225,366.45839222684367L386.1558868650014,361.7919690341464L378.7662538317638,360.7829492244491L367.4498497128693,364.6032263466277L353.76667787351334,363.0592552402286L351.4048592823464,369.1898705764645L343.70126830187337,362.4088272167978L339.0231628262218,363.4297071432045L322.789664646704,355.46980093923366L319.27946846868394,360.2531779134447L306.1635508970184,359.18767355149794L309.2355025854849,342.9217719883277L317.98630136282196,327.585204950188L296.39396877069066,321.8719881811003L289.6504136602791,315.23786635347915L291.42977309042243,305.04767040741785L288.7544839522319,299.5454363219417L291.7915883271728,283.8941409036056L291.3141051704862,258.90117950114586L300.11575541974025,259.6071476218053L304.4671847654177,250.93890482539314L309.7003948095513,229.5802080853939L307.6026372404521,221.20401227713L310.78426371891055,216.4507843132585L322.7597120056987,215.9729088130514L324.9876338730187,221.31873846268854L335.4128568641381,210.01148933354898L332.6295927809907,200.92220692704132L332.81441909298024,187.1584899893212L343.18986093871194,190.80667498359344L352.2899410911622,187.53586299259177L352.10402737123115,196.93225258144753L366.1586656928738,203.1907401611977L365.58073270363815,211.86884985466145L380.1124751738922,207.78040618683326L388.274708571748,201.23940926613L403.9785437269034,211.08767165928816Z" style="stroke: rgb(68, 68, 68); stroke-opacity: 1; stroke-width: 1px; opacity: 1;"/><path class="choroplethlocation" fill="rgb(87, 2, 163)" d="M351.57656035584654,378.5237654301402L360.91976374488803,382.20033171449495L362.91284658627046,377.92607771905773L378.55322489171306,374.26469939607273L381.8807701806162,382.420377039472L404.3247201341722,388.8055232406093L402.4842882494395,400.12570206366945L406.10799186296146,409.8350388122017L393.5087266699269,406.375956536335L380.3953251487484,414.11920878767614L380.9894437576535,425.41724800307L378.7930480444407,431.9168577517037L383.9289316754893,443.4875063166787L399.022243749204,455.18042060753487L407.11988734023817,473.9887956690933L425.48586446224,492.3138067497662L438.5894523280071,492.0473245725466L442.7102343106343,497.070150240879L438.06447047590865,501.56572818034545L453.33677066136903,509.4653852352419L465.8111964813709,516.0867713352544L480.8165389490665,527.1823561816038L482.6404579958753,531.358858016575L479.6525664210596,539.5104332339428L469.9613014427242,529.3022421566939L454.989197770424,525.9901480917331L447.9706001628184,540.6021061056098L460.65968900795554,548.6402699675186L458.86102322781284,560.3326140020591L451.53455410160046,561.6618802684578L442.5033958602694,581.0360420660446L435.2466337336866,582.6991806544424L435.2035212263319,575.8833439728247L438.72969922870476,564.019378246783L442.43805068133423,559.1655823144777L435.48211351238814,546.3598569504748L430.16605325775214,535.1163405294423L423.0740068572545,532.3094907868266L418.1737859096126,522.6266676172793L407.18243380614854,518.5291470854871L399.96250475348336,509.364852793336L387.5226625349834,507.7510874473098L374.5759462858782,497.33879465748464L359.68823166742317,482.08288095411604L348.9905993537765,468.670863334018L344.7748015844266,446.07036015124106L336.8199795854796,443.24952563381703L324.0539860910083,435.01209703803454L316.2831081716831,437.6293689029354L306.2499152541878,447.42570134955463L299.36475951599414,448.79867930233615L301.95982307349607,438.9569209337136L293.39744932967653,435.4819751098088L290.4980551330601,417.616106702382L296.49442087706876,411.06784589563995L292.5230052916578,402.32661823255626L293.5888961396675,395.80326638336305L300.08714423403836,401.23100342638554L307.88447931537996,400.7368379004424L317.2361311661243,393.49467899295723L319.7214354963057,397.36053434211794L327.33574365013317,396.9746697443518L331.2577471023769,387.8968952456223L342.7693446735349,391.36571864102143L349.90049775186174,387.9666251921244ZM418.9723762734288,577.5210193664382L432.20915230219487,575.6993957113631L425.933048864265,593.1520609672524L428.65504015940377,599.9523252661612L424.99670057313784,611.561676009915L411.4055355977884,603.1261232540489L402.32300886938907,600.6482878832784L377.85751205284,588.8144240889521L380.6499239959222,577.4530471358429L401.12690469500706,579.804344742585ZM316.62332494994007,512.8970419105747L325.36828073378996,506.50496402700924L334.7908432899006,522.7455150454235L330.89141200504116,552.1819170739059L323.1875352653371,550.3795856186686L315.6151417203442,557.4074386556922L309.4146423419285,551.2073297462628L310.4294458010512,524.2505788250048L307.40802902528594,511.12730997742926Z" style="stroke: rgb(68, 68, 68); stroke-opacity: 1; stroke-width: 1px; opacity: 1;"/><path class="choroplethlocation" fill="rgb(59, 4, 154)" d="M543.4032397162379,210.42490922000343L544.8699355295944,220.94861773037678L549.5934079388829,229.87725927376732L550.2284080433019,239.31914896016383L541.9064529862811,244.9197034012525L547.3147105710725,255.4504260497199L548.4114200972173,266.06138686445L557.5046746384846,285.98437113447994L556.4384099242002,292.6493124044805L549.2723126561276,295.97542759336307L537.0300690803032,316.29189079842877L541.5878856399556,326.4796473309964L538.214293181321,325.45806928844854L523.294552584242,317.3950447384477L512.5800539876374,321.3739073094787L505.2193486818144,319.2352991106138L496.5801760946953,324.68144154052675L488.59485052048944,316.82671819137636L482.44563856811874,320.21129074844293L481.5751326440434,318.7719440786889L474.1275957736804,307.4470936297762L462.9968427411625,306.4914396987567L461.3357873695278,299.1466216494882L451.05337430333304,296.6088448460264L448.9989932022063,302.7662608568696L440.7134306485078,298.021095680818L441.5809228893963,291.456637591971L430.44748595005973,289.6397322869366L423.3508546430467,282.02458619250115L417.4089220815786,266.9118954834548L418.6200695974821,258.803988485349L415.00924198173374,245.93895995457888L409.8696626911725,237.52226743226743L413.9246024822117,231.08822277183094L410.6671803287665,218.9631199771743L420.4108326903682,211.8558758866502L442.3200019970133,200.6449506600161L459.8314548582587,192.02872282774388L473.93262519866136,195.77591476049997L475.1413416306384,201.62562479087205L488.6949325107862,201.3233448387848L506.18456513676244,203.30841699804182L531.9959920026342,201.2557920462898L539.4067503588578,203.328413998903Z" style="stroke: rgb(68, 68, 68); stroke-opacity: 1; stroke-width: 1px; opacity: 1;"/><path class="choroplethlocation" fill="rgb(83, 2, 162)" d="M27.834585746230346,559.8479110392099L27.90971869636752,552.5009236513641L35.99318113373249,545.5913055030745L39.527582846416465,540.1801375719592L35.00528633892054,532.4872198562705L42.580023456718095,519.0913341872687L38.62092898140463,504.51203532484374L46.267498977761306,504.2499624249285L49.01885408042892,493.92084037943687L52.376472755345446,491.3162268256957L56.13721737170181,474.3729315193501L64.97046052639871,469.76012991457935L62.56038745265516,457.92704838970985L53.12345564919286,455.170081128379L49.74028258095012,457.36146170740244L40.14212057919491,455.328805020485L38.33118570560964,443.74523115889747L31.03620767299168,445.4684169475778L23.778757962410225,449.66377564595746L28.161754017968747,434.2315356760886L23.623434598706297,423.2086476383579L49.966955756592256,412.3516722847746L68.76864627880991,420.43305985996835L90.39242831401367,424.4658865367878L106.83709632145536,431.43792484626715L120.44856486590106,432.58893450141113L146.58107564926416,437.7034921672689L151.69092796040252,447.3471293093837L180.48337495306976,461.75899220062126L187.04743630094714,457.7199818748576L204.28224543085219,470.34128598859L223.8273199921904,469.5488064355824L223.27544034319888,482.7443653302362L205.62821276652699,495.7875517490925L183.60841862945594,497.71484145573163L181.09436892600465,505.1206112058693L169.1058703194016,515.9130235495147L159.98447259129995,533.1297079878628L164.88274664172616,546.5911705684698L153.53758916439654,555.1299853154507L147.72619232217,568.8727928342059L133.8847849057471,571.2698692651524L118.933271174619,586.3605518106049L96.5844511660539,582.8808843355894L79.90662086003107,579.5516680877765L67.43874667214641,585.1989757924856L59.23003538768734,592.1980770740023L50.837100817455564,588.7581675837458L45.769522162302735,580.2313000159526L43.388809004045584,566.708808442298Z" style="stroke: rgb(68, 68, 68); stroke-opacity: 1; stroke-width: 1px; opacity: 1;"/></g></g></g><g class="layer lakes"><path d="M409.88170231419997,84.35653998194789L409.96888988672805,87.55249213901902L408.9861304376111,92.09966826496975L400.64004294318903,99.49113356305497L394.56441357165386,101.87696088482107L389.7120264115787,101.7718272793552L390.9310973874319,94.98996976178546L390.7576836825913,92.25640948982618L393.1473894863127,90.48733533616496L397.39093353449636,89.65940112264548L399.6772111321207,86.27867482974057L404.89621839847064,81.1011261054839Z" style="stroke: none; fill: rgb(255, 255, 255); fill-opacity: 1;"/></g><g class="layer frontplot"><g class="scatterlayer"/></g></g></g><g class="funnelarealayer"/><g class="pielayer"/><g class="iciclelayer"/><g class="treemaplayer"/><g class="sunburstlayer"/><g class="glimages"/><defs id="topdefs-0a3fbe"><g class="clips"/></defs><g class="layer-above"><g class="imagelayer"/><g class="shapelayer"/></g><g class="infolayer"><g class="cbcoloraxis colorbar" transform=""><rect class="cbbg" x="611" y="0" width="88.578125" height="700" style="fill: rgb(0, 0, 0); fill-opacity: 0; stroke: rgb(68, 68, 68); stroke-opacity: 1; stroke-width: 0;"/><g class="cbfills" transform="translate(0,32)"><rect class="cbfill gradient_filled" x="621" y="0" width="30" height="658" style="fill: url('#g0a3fbe-cbcoloraxis');"/></g><g class="cblines" transform="translate(0,32)"/><g class="cbaxis crisp" transform=""><g class="ycbcoloraxistick"><text text-anchor="start" x="653.9" y="4.199999999999999" transform="translate(0,690)" style="font-family: 'Open Sans', verdana, arial, sans-serif; font-size: 12px; fill: rgb(42, 63, 95); fill-opacity: 1; white-space: pre; opacity: 1;">0</text></g><g class="ycbcoloraxistick"><text text-anchor="start" x="653.9" y="4.199999999999999" style="font-family: 'Open Sans', verdana, arial, sans-serif; font-size: 12px; fill: rgb(42, 63, 95); fill-opacity: 1; white-space: pre; opacity: 1;" transform="translate(0,558.4)">200</text></g><g class="ycbcoloraxistick"><text text-anchor="start" x="653.9" y="4.199999999999999" style="font-family: 'Open Sans', verdana, arial, sans-serif; font-size: 12px; fill: rgb(42, 63, 95); fill-opacity: 1; white-space: pre; opacity: 1;" transform="translate(0,426.8)">400</text></g><g class="ycbcoloraxistick"><text text-anchor="start" x="653.9" y="4.199999999999999" style="font-family: 'Open Sans', verdana, arial, sans-serif; font-size: 12px; fill: rgb(42, 63, 95); fill-opacity: 1; white-space: pre; opacity: 1;" transform="translate(0,295.2)">600</text></g><g class="ycbcoloraxistick"><text text-anchor="start" x="653.9" y="4.199999999999999" style="font-family: 'Open Sans', verdana, arial, sans-serif; font-size: 12px; fill: rgb(42, 63, 95); fill-opacity: 1; white-space: pre; opacity: 1;" transform="translate(0,163.6)">800</text></g><g class="ycbcoloraxistick"><text text-anchor="start" x="653.9" y="4.199999999999999" style="font-family: 'Open Sans', verdana, arial, sans-serif; font-size: 12px; fill: rgb(42, 63, 95); fill-opacity: 1; white-space: pre; opacity: 1;" transform="translate(0,31.999999999999996)">1000</text></g></g><g class="cbtitleunshift" transform=""><g class="cbtitle" transform=""><text class="ycbcoloraxistitle" x="620.98" y="23.5" text-anchor="start" style="font-family: 'Open Sans', verdana, arial, sans-serif; font-size: 14px; fill: rgb(42, 63, 95); opacity: 1; font-weight: normal; white-space: pre;">num_sold</text></g></g><rect class="cboutline" x="621" y="32" width="30" height="658" style="stroke: rgb(68, 68, 68); stroke-opacity: 1; fill: none; stroke-width: 0;"/></g><g class="g-gtitle"/></g></svg>