<svg class="main-svg" xmlns="http://www.w3.org/2000/svg" xmlns:xlink="http://www.w3.org/1999/xlink" width="700" height="450" style="" viewBox="0 0 700 450"><rect x="0" y="0" width="700" height="450" style="fill: rgb(255, 255, 255); fill-opacity: 1;"/><defs id="defs-5c46cd"><g class="clips"/><g class="gradients"/><g class="patterns"/></defs><g class="bglayer"/><g class="layer-below"><g class="imagelayer"/><g class="shapelayer"/></g><g class="cartesianlayer"/><g class="polarlayer"/><g class="smithlayer"/><g class="ternarylayer"/><g class="geolayer"/><g class="funnelarealayer"/><g class="pielayer"/><g class="iciclelayer"/><g class="treemaplayer"/><g class="sunburstlayer"><g class="trace sunburst" stroke-linejoin="round" style="opacity: 1;"><g class="slice cursor-pointer"><path class="surface" d="M315,225L386.66666666666663,225A71.66666666666666,71.66666666666666 0,0,0 335.21149428870376,156.24240689401057L315,225A0,0 0,0,1 315,225Z" style="pointer-events: all; stroke-width: 1; fill: rgb(99, 110, 250); fill-opacity: 1; stroke: rgb(255, 255, 255); stroke-opacity: 1;"/><g class="slicetext"><text data-notex="1" class="slicetext" text-anchor="middle" x="0" y="0" style="font-family: 'Open Sans', verdana, arial, sans-serif; font-size: 12px; fill: rgb(255, 255, 255); fill-opacity: 1; white-space: pre;" transform="translate(355.1096537187453,194.98369121302682)rotate(53.19042623920063)">Germany</text></g></g><g class="slice cursor-pointer"><path class="surface" d="M315,225L335.21149428870376,156.24240689401057A71.66666666666666,71.66666666666666 0,0,0 254.82958864071742,186.06887224898531L315,225A0,0 0,0,1 315,225Z" style="pointer-events: all; stroke-width: 1; fill: rgb(239, 85, 59); fill-opacity: 1; stroke: rgb(255, 255, 255); stroke-opacity: 1;"/><g class="slicetext"><text data-notex="1" class="slicetext" text-anchor="middle" x="0" y="0" style="font-family: 'Open Sans', verdana, arial, sans-serif; font-size: 12px; fill: rgb(68, 68, 68); fill-opacity: 1; white-space: pre;" transform="translate(299.39989151764536,187.45792651917998)">Belgium</text></g></g><g class="slice cursor-pointer"><path class="surface" d="M315,225L254.82958864071742,186.06887224898531A71.66666666666666,71.66666666666666 0,0,0 255.22015365980874,264.5282314637808L315,225A0,0 0,0,1 315,225Z" style="pointer-events: all; stroke-width: 1; fill: rgb(0, 204, 150); fill-opacity: 1; stroke: rgb(255, 255, 255); stroke-opacity: 1;"/><g class="slicetext"><text data-notex="1" class="slicetext" text-anchor="middle" x="0" y="0" style="font-family: 'Open Sans', verdana, arial, sans-serif; font-size: 12px; fill: rgb(68, 68, 68); fill-opacity: 1; white-space: pre;" transform="translate(268.68625623533023,229.73054646888104)">France</text></g></g><g class="slice cursor-pointer"><path class="surface" d="M315,225L255.22015365980874,264.5282314637808A71.66666666666666,71.66666666666666 0,0,0 317.036505520649,296.6377257900855L315,225A0,0 0,0,1 315,225Z" style="pointer-events: all; stroke-width: 1; fill: rgb(171, 99, 250); fill-opacity: 1; stroke: rgb(255, 255, 255); stroke-opacity: 1;"/><g class="slicetext"><text data-notex="1" class="slicetext" text-anchor="middle" x="0" y="0" style="font-family: 'Open Sans', verdana, arial, sans-serif; font-size: 12px; fill: rgb(68, 68, 68); fill-opacity: 1; white-space: pre;" transform="translate(292.7688297389749,272.29886282755837)">Italy</text></g></g><g class="slice cursor-pointer"><path class="surface" d="M315,225L317.036505520649,296.6377257900855A71.66666666666666,71.66666666666666 0,0,0 373.3851493484707,266.5606237521513L315,225A0,0 0,0,1 315,225Z" style="pointer-events: all; stroke-width: 1; fill: rgb(255, 161, 90); fill-opacity: 1; stroke: rgb(255, 255, 255); stroke-opacity: 1;"/><g class="slicetext"><text data-notex="1" class="slicetext" text-anchor="middle" x="0" y="0" style="font-family: 'Open Sans', verdana, arial, sans-serif; font-size: 12px; fill: rgb(68, 68, 68); fill-opacity: 1; white-space: pre;" transform="translate(338.3441012536215,273.2345474760796)">Spain</text></g></g><g class="slice cursor-pointer"><path class="surface" d="M315,225L373.3851493484707,266.5606237521513A71.66666666666666,71.66666666666666 0,0,0 386.66666666666663,225.00000000000003L315,225A0,0 0,0,1 315,225Z" style="pointer-events: all; stroke-width: 1; fill: rgb(25, 211, 243); fill-opacity: 1; stroke: rgb(255, 255, 255); stroke-opacity: 1;"/><g class="slicetext"><text data-notex="1" class="slicetext" text-anchor="middle" x="0" y="0" style="font-family: 'Open Sans', verdana, arial, sans-serif; font-size: 12px; fill: rgb(68, 68, 68); fill-opacity: 1; white-space: pre;" transform="translate(360.09816288710437,244.13620370326979)rotate(17.722306128459536)">Poland</text></g></g><g class="slice cursor-pointer"><path class="surface" d="M386.66666666666663,225L458.3333333333333,225A143.33333333333331,143.33333333333331 0,0,0 397.9349823136099,108.09733470495358L356.46749115680495,166.5486673524768A71.66666666666666,71.66666666666666 0,0,1 386.66666666666663,225Z" style="pointer-events: all; stroke-width: 1; fill: rgb(99, 110, 250); fill-opacity: 1; stroke: rgb(255, 255, 255); stroke-opacity: 1;"/><g class="slicetext"><text data-notex="1" class="slicetext" text-anchor="middle" x="0" y="0" style="font-family: 'Open Sans', verdana, arial, sans-serif; font-size: 12px; fill: rgb(255, 255, 255); fill-opacity: 1; white-space: pre;" transform="translate(410.37342538275504,180.15622100525133)">KaggleMart</text></g></g><g class="slice cursor-pointer"><path class="surface" d="M356.46749115680495,166.5486673524768L397.9349823136099,108.09733470495358A143.33333333333331,143.33333333333331 0,0,0 355.4229885774075,87.48481378802114L335.21149428870376,156.24240689401057A71.66666666666666,71.66666666666666 0,0,1 356.46749115680495,166.5486673524768Z" style="pointer-events: all; stroke-width: 1; fill: rgb(99, 110, 250); fill-opacity: 1; stroke: rgb(255, 255, 255); stroke-opacity: 1;"/><g class="slicetext"><text data-notex="1" class="slicetext" text-anchor="middle" x="0" y="0" style="font-family: 'Open Sans', verdana, arial, sans-serif; font-size: 12px; fill: rgb(255, 255, 255); fill-opacity: 1; white-space: pre;" transform="translate(365.57024398636776,130.1494408306837)scale(0.9159362435413414)rotate(-64.13293918481304)">KaggleRama</text></g></g><g class="slice cursor-pointer"><path class="surface" d="M335.21149428870376,156.24240689401057L355.4229885774075,87.48481378802114A143.33333333333331,143.33333333333331 0,0,0 226.45267879626442,112.28879225167127L270.7263393981322,168.64439612583564A71.66666666666666,71.66666666666666 0,0,1 335.21149428870376,156.24240689401057Z" style="pointer-events: all; stroke-width: 1; fill: rgb(239, 85, 59); fill-opacity: 1; stroke: rgb(255, 255, 255); stroke-opacity: 1;"/><g class="slicetext"><text data-notex="1" class="slicetext" text-anchor="middle" x="0" y="0" style="font-family: 'Open Sans', verdana, arial, sans-serif; font-size: 12px; fill: rgb(68, 68, 68); fill-opacity: 1; white-space: pre;" transform="translate(294.56451732262855,123.93460991561264)">KaggleMart</text></g></g><g class="slice cursor-pointer"><path class="surface" d="M270.7263393981322,168.64439612583564L226.45267879626442,112.28879225167127A143.33333333333331,143.33333333333331 0,0,0 194.6591772814348,147.13774449797063L254.82958864071742,186.06887224898531A71.66666666666666,71.66666666666666 0,0,1 270.7263393981322,168.64439612583564Z" style="pointer-events: all; stroke-width: 1; fill: rgb(239, 85, 59); fill-opacity: 1; stroke: rgb(255, 255, 255); stroke-opacity: 1;"/><g class="slicetext"><text data-notex="1" class="slicetext" text-anchor="middle" x="0" y="0" style="font-family: 'Open Sans', verdana, arial, sans-serif; font-size: 12px; fill: rgb(68, 68, 68); fill-opacity: 1; white-space: pre;" transform="translate(232.87258471838805,155.65257170785364)scale(0.9159362435413414)rotate(42.374917792966926)">KaggleRama</text></g></g><g class="slice cursor-pointer"><path class="surface" d="M254.82958864071742,186.06887224898531L194.6591772814348,147.13774449797063A143.33333333333331,143.33333333333331 0,0,0 177.48766142103912,265.43267469497493L246.24383071051955,245.21633734748747A71.66666666666666,71.66666666666666 0,0,1 254.82958864071742,186.06887224898531Z" style="pointer-events: all; stroke-width: 1; fill: rgb(0, 204, 150); fill-opacity: 1; stroke: rgb(255, 255, 255); stroke-opacity: 1;"/><g class="slicetext"><text data-notex="1" class="slicetext" text-anchor="middle" x="0" y="0" style="font-family: 'Open Sans', verdana, arial, sans-serif; font-size: 12px; fill: rgb(68, 68, 68); fill-opacity: 1; white-space: pre;" transform="translate(208.48216375715685,214.05730842000986)">KaggleMart</text></g></g><g class="slice cursor-pointer"><path class="surface" d="M246.24383071051955,245.21633734748747L177.48766142103912,265.43267469497493A143.33333333333331,143.33333333333331 0,0,0 195.4403073196175,304.05646292756165L255.22015365980874,264.5282314637808A71.66666666666666,71.66666666666666 0,0,1 246.24383071051955,245.21633734748747Z" style="pointer-events: all; stroke-width: 1; fill: rgb(0, 204, 150); fill-opacity: 1; stroke: rgb(255, 255, 255); stroke-opacity: 1;"/><g class="slicetext"><text data-notex="1" class="slicetext" text-anchor="middle" x="0" y="0" style="font-family: 'Open Sans', verdana, arial, sans-serif; font-size: 12px; fill: rgb(68, 68, 68); fill-opacity: 1; white-space: pre;" transform="translate(219.33456811625405,274.0112568097278)scale(0.9159362435413414)rotate(-24.929382131168836)">KaggleRama</text></g></g><g class="slice cursor-pointer"><path class="surface" d="M255.22015365980874,264.5282314637808L195.4403073196175,304.05646292756165A143.33333333333331,143.33333333333331 0,0,0 281.96035165192296,364.4733884347829L298.48017582596145,294.73669421739146A71.66666666666666,71.66666666666666 0,0,1 255.22015365980874,264.5282314637808Z" style="pointer-events: all; stroke-width: 1; fill: rgb(171, 99, 250); fill-opacity: 1; stroke: rgb(255, 255, 255); stroke-opacity: 1;"/><g class="slicetext"><text data-notex="1" class="slicetext" text-anchor="middle" x="0" y="0" style="font-family: 'Open Sans', verdana, arial, sans-serif; font-size: 12px; fill: rgb(68, 68, 68); fill-opacity: 1; white-space: pre;" transform="translate(253.32060022527435,317.6377762076771)">KaggleMart</text></g></g><g class="slice cursor-pointer"><path class="surface" d="M298.48017582596145,294.73669421739146L281.96035165192296,364.4733884347829A143.33333333333331,143.33333333333331 0,0,0 319.0730110412979,368.2754515801709L317.036505520649,296.6377257900855A71.66666666666666,71.66666666666666 0,0,1 298.48017582596145,294.73669421739146Z" style="pointer-events: all; stroke-width: 1; fill: rgb(171, 99, 250); fill-opacity: 1; stroke: rgb(255, 255, 255); stroke-opacity: 1;"/><g class="slicetext"><text data-notex="1" class="slicetext" text-anchor="middle" x="0" y="0" style="font-family: 'Open Sans', verdana, arial, sans-serif; font-size: 12px; fill: rgb(68, 68, 68); fill-opacity: 1; white-space: pre;" transform="translate(308.15372555589823,332.2711828862196)scale(0.9159362435413414)rotate(-84.15065282347075)">KaggleRama</text></g></g><g class="slice cursor-pointer"><path class="surface" d="M317.036505520649,296.6377257900855L319.0730110412979,368.2754515801709A143.33333333333331,143.33333333333331 0,0,0 408.9109369572059,333.282871980125L361.95546847860294,279.1414359900625A71.66666666666666,71.66666666666666 0,0,1 317.036505520649,296.6377257900855Z" style="pointer-events: all; stroke-width: 1; fill: rgb(255, 161, 90); fill-opacity: 1; stroke: rgb(255, 255, 255); stroke-opacity: 1;"/><g class="slicetext"><text data-notex="1" class="slicetext" text-anchor="middle" x="0" y="0" style="font-family: 'Open Sans', verdana, arial, sans-serif; font-size: 12px; fill: rgb(68, 68, 68); fill-opacity: 1; white-space: pre;" transform="translate(353.884013243828,329.6695428205388)">KaggleMart</text></g></g><g class="slice cursor-pointer"><path class="surface" d="M361.95546847860294,279.1414359900625L408.9109369572059,333.282871980125A143.33333333333331,143.33333333333331 0,0,0 431.7702986969414,308.12124750430263L373.3851493484707,266.5606237521513A71.66666666666666,71.66666666666666 0,0,1 361.95546847860294,279.1414359900625Z" style="pointer-events: all; stroke-width: 1; fill: rgb(255, 161, 90); fill-opacity: 1; stroke: rgb(255, 255, 255); stroke-opacity: 1;"/><g class="slicetext"><text data-notex="1" class="slicetext" text-anchor="middle" x="0" y="0" style="font-family: 'Open Sans', verdana, arial, sans-serif; font-size: 12px; fill: rgb(68, 68, 68); fill-opacity: 1; white-space: pre;" transform="translate(391.72900291644197,300.27707661048856)scale(0.9159362435413414)rotate(42.25517899721399)">KaggleRama</text></g></g><g class="slice cursor-pointer"><path class="surface" d="M373.3851493484707,266.5606237521513L431.7702986969414,308.12124750430263A143.33333333333331,143.33333333333331 0,0,0 456.52385546536016,247.70336491941833L385.7619277326801,236.35168245970917A71.66666666666666,71.66666666666666 0,0,1 373.3851493484707,266.5606237521513Z" style="pointer-events: all; stroke-width: 1; fill: rgb(25, 211, 243); fill-opacity: 1; stroke: rgb(255, 255, 255); stroke-opacity: 1;"/><g class="slicetext"><text data-notex="1" class="slicetext" text-anchor="middle" x="0" y="0" style="font-family: 'Open Sans', verdana, arial, sans-serif; font-size: 12px; fill: rgb(68, 68, 68); fill-opacity: 1; white-space: pre;" transform="translate(412.54577425499906,269.82810753641064)rotate(22.27919691810871)">KaggleMart</text></g></g><g class="slice cursor-pointer"><path class="surface" d="M385.7619277326801,236.35168245970917L456.52385546536016,247.70336491941833A143.33333333333331,143.33333333333331 0,0,0 458.3333333333333,225.00000000000003L386.66666666666663,225.00000000000003A71.66666666666666,71.66666666666666 0,0,1 385.7619277326801,236.35168245970917Z" style="pointer-events: all; stroke-width: 1; fill: rgb(25, 211, 243); fill-opacity: 1; stroke: rgb(255, 255, 255); stroke-opacity: 1;"/><g class="slicetext"><text data-notex="1" class="slicetext" text-anchor="middle" x="0" y="0" style="font-family: 'Open Sans', verdana, arial, sans-serif; font-size: 12px; fill: rgb(68, 68, 68); fill-opacity: 1; white-space: pre;" transform="translate(425.8467367596064,237.5019079999903)scale(0.8123854060106104)rotate(4.556890789649174)">KaggleRama</text></g></g><g class="slice"><path class="surface" d="M458.3333333333333,225L530,225A215,215 0,0,0 520.6638386448284,162.33114430696858L452.1092257632189,183.2207628713124A143.33333333333331,143.33333333333331 0,0,1 458.3333333333333,225Z" style="pointer-events: all; stroke-width: 1; fill: rgb(99, 110, 250); fill-opacity: 1; stroke: rgb(255, 255, 255); stroke-opacity: 1; opacity: 0.7;"/><g class="slicetext"><text data-notex="1" class="slicetext" text-anchor="middle" x="0" y="0" style="font-family: 'Open Sans', verdana, arial, sans-serif; font-size: 12px; fill: rgb(255, 255, 255); fill-opacity: 1; white-space: pre;" transform="translate(492.4258510395515,200.0952042659705)scale(0.33572043786174954)rotate(-8.473382461721712)">Kaggle for Kids: One Smart Goose</text></g></g><g class="slice"><path class="surface" d="M452.1092257632189,183.2207628713124L520.6638386448284,162.33114430696858A215,215 0,0,0 496.0560351281805,109.05297699525414L435.70402341878696,147.70198466350277A143.33333333333331,143.33333333333331 0,0,1 452.1092257632189,183.2207628713124Z" style="pointer-events: all; stroke-width: 1; fill: rgb(99, 110, 250); fill-opacity: 1; stroke: rgb(255, 255, 255); stroke-opacity: 1; opacity: 0.7;"/><g class="slicetext"><text data-notex="1" class="slicetext" text-anchor="middle" x="0" y="0" style="font-family: 'Open Sans', verdana, arial, sans-serif; font-size: 12px; fill: rgb(255, 255, 255); fill-opacity: 1; white-space: pre;" transform="translate(478.40178146612556,151.51652874064212)scale(0.4009789423458598)rotate(-24.790990292652964)">Kaggle Advanced Techniques</text></g></g><g class="slice"><path class="surface" d="M435.70402341878696,147.70198466350277L496.0560351281805,109.05297699525414A215,215 0,0,0 466.4762471318188,72.42232615857534L415.9841647545459,123.28155077238357A143.33333333333331,143.33333333333331 0,0,1 435.70402341878696,147.70198466350277Z" style="pointer-events: all; stroke-width: 1; fill: rgb(99, 110, 250); fill-opacity: 1; stroke: rgb(255, 255, 255); stroke-opacity: 1; opacity: 0.7;"/><g class="slicetext"><text data-notex="1" class="slicetext" text-anchor="middle" x="0" y="0" style="font-family: 'Open Sans', verdana, arial, sans-serif; font-size: 12px; fill: rgb(255, 255, 255); fill-opacity: 1; white-space: pre;" transform="translate(455.80699719792875,114.21677030617468)scale(0.504925326151612)rotate(-38.92138354555914)">Kaggle Getting Started</text></g></g><g class="slice"><path class="surface" d="M415.9841647545459,123.28155077238357L466.4762471318188,72.42232615857534A215,215 0,0,0 439.40247347041486,49.64600205743031L397.9349823136099,108.09733470495357A143.33333333333331,143.33333333333331 0,0,1 415.9841647545459,123.28155077238357Z" style="pointer-events: all; stroke-width: 1; fill: rgb(99, 110, 250); fill-opacity: 1; stroke: rgb(255, 255, 255); stroke-opacity: 1; opacity: 0.7;"/><g class="slicetext"><text data-notex="1" class="slicetext" text-anchor="middle" x="0" y="0" style="font-family: 'Open Sans', verdana, arial, sans-serif; font-size: 12px; fill: rgb(255, 255, 255); fill-opacity: 1; white-space: pre;" transform="translate(432.1695863358749,89.8064787166451)scale(0.5842044428146077)rotate(-49.927141138641446)">Kaggle Recipe Book</text></g></g><g class="slice"><path class="surface" d="M397.9349823136099,108.09733470495358L439.40247347041486,49.64600205743034A215,215 0,0,0 420.81718994688964,37.843054332082346L385.5447932979264,100.22870288805491A143.33333333333331,143.33333333333331 0,0,1 397.9349823136099,108.09733470495358Z" style="pointer-events: all; stroke-width: 1; fill: rgb(99, 110, 250); fill-opacity: 1; stroke: rgb(255, 255, 255); stroke-opacity: 1; opacity: 0.7;"/><g class="slicetext"><text data-notex="1" class="slicetext" text-anchor="middle" x="0" y="0" style="font-family: 'Open Sans', verdana, arial, sans-serif; font-size: 12px; fill: rgb(255, 255, 255); fill-opacity: 1; white-space: pre;" transform="translate(412.3219624932554,74.57188732113852)scale(0.33572043786174954)rotate(-57.58161274988606)">Kaggle for Kids: One Smart Goose</text></g></g><g class="slice"><path class="surface" d="M385.5447932979264,100.22870288805491L420.81718994688964,37.843054332082346A215,215 0,0,0 402.5294759627919,28.623853694805803L373.35298397519455,94.08256912987054A143.33333333333331,143.33333333333331 0,0,1 385.5447932979264,100.22870288805491Z" style="pointer-events: all; stroke-width: 1; fill: rgb(99, 110, 250); fill-opacity: 1; stroke: rgb(255, 255, 255); stroke-opacity: 1; opacity: 0.7;"/><g class="slicetext"><text data-notex="1" class="slicetext" text-anchor="middle" x="0" y="0" style="font-family: 'Open Sans', verdana, arial, sans-serif; font-size: 12px; fill: rgb(255, 255, 255); fill-opacity: 1; white-space: pre;" transform="translate(397.25887604210976,65.83517961899632)scale(0.4009789423458598)rotate(-63.24641765950548)">Kaggle Advanced Techniques</text></g></g><g class="slice"><path class="surface" d="M373.35298397519455,94.08256912987054L402.5294759627919,28.623853694805803A215,215 0,0,0 387.303840666451,22.522458961788885L363.2025604443007,90.0149726411926A143.33333333333331,143.33333333333331 0,0,1 373.35298397519455,94.08256912987054Z" style="pointer-events: all; stroke-width: 1; fill: rgb(99, 110, 250); fill-opacity: 1; stroke: rgb(255, 255, 255); stroke-opacity: 1; opacity: 0.7;"/><g class="slicetext"><text data-notex="1" class="slicetext" text-anchor="middle" x="0" y="0" style="font-family: 'Open Sans', verdana, arial, sans-serif; font-size: 12px; fill: rgb(255, 255, 255); fill-opacity: 1; white-space: pre;" transform="translate(383.7482757562139,59.55149132784567)scale(0.504925326151612)rotate(-68.16245878456232)">Kaggle Getting Started</text></g></g><g class="slice"><path class="surface" d="M363.2025604443007,90.0149726411926L387.303840666451,22.522458961788885A215,215 0,0,0 375.6344828661113,18.727220682031714L355.4229885774075,87.48481378802114A143.33333333333331,143.33333333333331 0,0,1 363.2025604443007,90.0149726411926Z" style="pointer-events: all; stroke-width: 1; fill: rgb(99, 110, 250); fill-opacity: 1; stroke: rgb(255, 255, 255); stroke-opacity: 1; opacity: 0.7;"/><g class="slicetext"><text data-notex="1" class="slicetext" text-anchor="middle" x="0" y="0" style="font-family: 'Open Sans', verdana, arial, sans-serif; font-size: 12px; fill: rgb(255, 255, 255); fill-opacity: 1; white-space: pre;" transform="translate(373.37604046465844,53.47047034775734)scale(0.5471877796090455)rotate(-71.98386221172859)">Kaggle Recipe Book</text></g></g><g class="slice"><path class="surface" d="M355.4229885774075,87.48481378802114L375.6344828661113,18.727220682031714A215,215 0,0,0 313.12431796346186,10.008181976853336L313.7495453089746,81.67212131790225A143.33333333333331,143.33333333333331 0,0,1 355.4229885774075,87.48481378802114Z" style="pointer-events: all; stroke-width: 1; fill: rgb(239, 85, 59); fill-opacity: 1; stroke: rgb(255, 255, 255); stroke-opacity: 1; opacity: 0.7;"/><g class="slicetext"><text data-notex="1" class="slicetext" text-anchor="middle" x="0" y="0" style="font-family: 'Open Sans', verdana, arial, sans-serif; font-size: 12px; fill: rgb(68, 68, 68); fill-opacity: 1; white-space: pre;" transform="translate(341.2460853667566,47.76759757148301)scale(0.33572043786174954)rotate(-82.05950405774865)">Kaggle for Kids: One Smart Goose</text></g></g><g class="slice"><path class="surface" d="M313.7495453089746,81.67212131790225L313.12431796346186,10.008181976853336A215,215 0,0,0 255.13320694552925,18.503106344494455L275.08880463035285,87.33540422966297A143.33333333333331,143.33333333333331 0,0,1 313.7495453089746,81.67212131790225Z" style="pointer-events: all; stroke-width: 1; fill: rgb(239, 85, 59); fill-opacity: 1; stroke: rgb(255, 255, 255); stroke-opacity: 1; opacity: 0.7;"/><g class="slicetext"><text data-notex="1" class="slicetext" text-anchor="middle" x="0" y="0" style="font-family: 'Open Sans', verdana, arial, sans-serif; font-size: 12px; fill: rgb(68, 68, 68); fill-opacity: 1; white-space: pre;" transform="translate(287.2478745940379,47.99779021130812)scale(0.4009789423458598)rotate(81.66620491529989)">Kaggle Advanced Techniques</text></g></g><g class="slice"><path class="surface" d="M275.08880463035285,87.33540422966297L255.13320694552925,18.503106344494455A215,215 0,0,0 211.62679369301804,36.482148808623066L246.0845291286787,99.32143253908205A143.33333333333331,143.33333333333331 0,0,1 275.08880463035285,87.33540422966297Z" style="pointer-events: all; stroke-width: 1; fill: rgb(239, 85, 59); fill-opacity: 1; stroke: rgb(255, 255, 255); stroke-opacity: 1; opacity: 0.7;"/><g class="slicetext"><text data-notex="1" class="slicetext" text-anchor="middle" x="0" y="0" style="font-family: 'Open Sans', verdana, arial, sans-serif; font-size: 12px; fill: rgb(68, 68, 68); fill-opacity: 1; white-space: pre;" transform="translate(244.47885702636754,60.29935387198734)scale(0.504925326151612)rotate(67.54711973930955)">Kaggle Getting Started</text></g></g><g class="slice"><path class="surface" d="M246.0845291286787,99.32143253908205L211.62679369301804,36.482148808623066A215,215 0,0,0 182.1790181943966,55.933188377506895L226.45267879626442,112.28879225167127A143.33333333333331,143.33333333333331 0,0,1 246.0845291286787,99.32143253908205Z" style="pointer-events: all; stroke-width: 1; fill: rgb(239, 85, 59); fill-opacity: 1; stroke: rgb(255, 255, 255); stroke-opacity: 1; opacity: 0.7;"/><g class="slicetext"><text data-notex="1" class="slicetext" text-anchor="middle" x="0" y="0" style="font-family: 'Open Sans', verdana, arial, sans-serif; font-size: 12px; fill: rgb(68, 68, 68); fill-opacity: 1; white-space: pre;" transform="translate(213.92864987394682,76.7535796957813)scale(0.5842044428146077)rotate(56.554176205348995)">Kaggle Recipe Book</text></g></g><g class="slice"><path class="surface" d="M226.45267879626442,112.28879225167127L182.1790181943966,55.933188377506895A215,215 0,0,0 165.58356990684732,70.40462355484877L215.3890466045649,121.93641570323254A143.33333333333331,143.33333333333331 0,0,1 226.45267879626442,112.28879225167127Z" style="pointer-events: all; stroke-width: 1; fill: rgb(239, 85, 59); fill-opacity: 1; stroke: rgb(255, 255, 255); stroke-opacity: 1; opacity: 0.7;"/><g class="slicetext"><text data-notex="1" class="slicetext" text-anchor="middle" x="0" y="0" style="font-family: 'Open Sans', verdana, arial, sans-serif; font-size: 12px; fill: rgb(68, 68, 68); fill-opacity: 1; white-space: pre;" transform="translate(196.11308845008773,90.9623794235879)scale(0.33572043786174954)rotate(48.911171195462884)">Kaggle for Kids: One Smart Goose</text></g></g><g class="slice"><path class="surface" d="M215.3890466045649,121.93641570323254L165.58356990684732,70.40462355484877A215,215 0,0,0 151.60507672683462,85.26060309076615L206.07005115122308,131.84040206051077A143.33333333333331,143.33333333333331 0,0,1 215.3890466045649,121.93641570323254Z" style="pointer-events: all; stroke-width: 1; fill: rgb(239, 85, 59); fill-opacity: 1; stroke: rgb(255, 255, 255); stroke-opacity: 1; opacity: 0.7;"/><g class="slicetext"><text data-notex="1" class="slicetext" text-anchor="middle" x="0" y="0" style="font-family: 'Open Sans', verdana, arial, sans-serif; font-size: 12px; fill: rgb(68, 68, 68); fill-opacity: 1; white-space: pre;" transform="translate(183.28663013330726,103.5440370628591)scale(0.4009789423458598)rotate(43.25692137165629)">Kaggle Advanced Techniques</text></g></g><g class="slice"><path class="surface" d="M206.07005115122308,131.84040206051077L151.60507672683462,85.26060309076615A215,215 0,0,0 141.4468573400386,98.09725506179511L199.2979048933591,140.39817004119675A143.33333333333331,143.33333333333331 0,0,1 206.07005115122308,131.84040206051077Z" style="pointer-events: all; stroke-width: 1; fill: rgb(239, 85, 59); fill-opacity: 1; stroke: rgb(255, 255, 255); stroke-opacity: 1; opacity: 0.7;"/><g class="slicetext"><text data-notex="1" class="slicetext" text-anchor="middle" x="0" y="0" style="font-family: 'Open Sans', verdana, arial, sans-serif; font-size: 12px; fill: rgb(68, 68, 68); fill-opacity: 1; white-space: pre;" transform="translate(173.10697780257954,115.61122227131933)scale(0.504925326151612)rotate(38.35615143458381)">Kaggle Getting Started</text></g></g><g class="slice"><path class="surface" d="M199.2979048933591,140.39817004119675L141.4468573400386,98.09725506179511A215,215 0,0,0 134.4887659221522,108.20661674695593L194.6591772814348,147.13774449797063A143.33333333333331,143.33333333333331 0,0,1 199.2979048933591,140.39817004119675Z" style="pointer-events: all; stroke-width: 1; fill: rgb(239, 85, 59); fill-opacity: 1; stroke: rgb(255, 255, 255); stroke-opacity: 1; opacity: 0.7;"/><g class="slicetext"><text data-notex="1" class="slicetext" text-anchor="middle" x="0" y="0" style="font-family: 'Open Sans', verdana, arial, sans-serif; font-size: 12px; fill: rgb(68, 68, 68); fill-opacity: 1; white-space: pre;" transform="translate(163.9640626815254,124.03415812052172)scale(0.5472333987778171)rotate(34.53893569477998)">Kaggle Recipe Book</text></g></g><g class="slice"><path class="surface" d="M194.6591772814348,147.13774449797063L134.4887659221522,108.20661674695593A215,215 0,0,0 110.09929555457563,159.87933263725827L178.3995303697171,181.5862217581722A143.33333333333331,143.33333333333331 0,0,1 194.6591772814348,147.13774449797063Z" style="pointer-events: all; stroke-width: 1; fill: rgb(0, 204, 150); fill-opacity: 1; stroke: rgb(255, 255, 255); stroke-opacity: 1; opacity: 0.7;"/><g class="slicetext"><text data-notex="1" class="slicetext" text-anchor="middle" x="0" y="0" style="font-family: 'Open Sans', verdana, arial, sans-serif; font-size: 12px; fill: rgb(68, 68, 68); fill-opacity: 1; white-space: pre;" transform="translate(152.33702968155805,149.89381147438962)scale(0.33572043786174954)rotate(25.267263770508293)">Kaggle for Kids: One Smart Goose</text></g></g><g class="slice"><path class="surface" d="M178.3995303697171,181.5862217581722L110.09929555457563,159.87933263725827A215,215 0,0,0 100.39314556737398,212.00392249431937L171.92876371158266,216.33594832954623A143.33333333333331,143.33333333333331 0,0,1 178.3995303697171,181.5862217581722Z" style="pointer-events: all; stroke-width: 1; fill: rgb(0, 204, 150); fill-opacity: 1; stroke: rgb(255, 255, 255); stroke-opacity: 1; opacity: 0.7;"/><g class="slicetext"><text data-notex="1" class="slicetext" text-anchor="middle" x="0" y="0" style="font-family: 'Open Sans', verdana, arial, sans-serif; font-size: 12px; fill: rgb(68, 68, 68); fill-opacity: 1; white-space: pre;" transform="translate(138.54168406524482,193.97701703416533)scale(0.4009789423458598)rotate(10.548269261692212)">Kaggle Advanced Techniques</text></g></g><g class="slice"><path class="surface" d="M171.92876371158266,216.33594832954623L100.39314556737398,212.00392249431937A215,215 0,0,0 102.0335622942049,254.50078661499896L173.0223748628033,244.66719107666597A143.33333333333331,143.33333333333331 0,0,1 171.92876371158266,216.33594832954623Z" style="pointer-events: all; stroke-width: 1; fill: rgb(0, 204, 150); fill-opacity: 1; stroke: rgb(255, 255, 255); stroke-opacity: 1; opacity: 0.7;"/><g class="slicetext"><text data-notex="1" class="slicetext" text-anchor="middle" x="0" y="0" style="font-family: 'Open Sans', verdana, arial, sans-serif; font-size: 12px; fill: rgb(68, 68, 68); fill-opacity: 1; white-space: pre;" transform="translate(136.07194092963246,234.1806382459733)scale(0.504925326151612)rotate(-2.21057051258947)">Kaggle Getting Started</text></g></g><g class="slice"><path class="surface" d="M173.0223748628033,244.66719107666597L102.0335622942049,254.50078661499896A215,215 0,0,0 108.73149213155867,285.64901204246246L177.48766142103912,265.43267469497493A143.33333333333331,143.33333333333331 0,0,1 173.0223748628033,244.66719107666597Z" style="pointer-events: all; stroke-width: 1; fill: rgb(0, 204, 150); fill-opacity: 1; stroke: rgb(255, 255, 255); stroke-opacity: 1; opacity: 0.7;"/><g class="slicetext"><text data-notex="1" class="slicetext" text-anchor="middle" x="0" y="0" style="font-family: 'Open Sans', verdana, arial, sans-serif; font-size: 12px; fill: rgb(68, 68, 68); fill-opacity: 1; white-space: pre;" transform="translate(140.15872994304303,265.28584409179666)scale(0.5842044428146077)rotate(-12.135746241704737)">Kaggle Recipe Book</text></g></g><g class="slice"><path class="surface" d="M177.48766142103912,265.43267469497493L108.73149213155867,285.64901204246246A215,215 0,0,0 115.21344983609467,304.4376130910624L181.80896655739647,277.95840872737494A143.33333333333331,143.33333333333331 0,0,1 177.48766142103912,265.43267469497493Z" style="pointer-events: all; stroke-width: 1; fill: rgb(0, 204, 150); fill-opacity: 1; stroke: rgb(255, 255, 255); stroke-opacity: 1; opacity: 0.7;"/><g class="slicetext"><text data-notex="1" class="slicetext" text-anchor="middle" x="0" y="0" style="font-family: 'Open Sans', verdana, arial, sans-serif; font-size: 12px; fill: rgb(68, 68, 68); fill-opacity: 1; white-space: pre;" transform="translate(146.12944580957327,284.8574756824995)scale(0.33572043786174954)rotate(-19.034135523280042)">Kaggle for Kids: One Smart Goose</text></g></g><g class="slice"><path class="surface" d="M181.80896655739647,277.95840872737494L115.21344983609467,304.4376130910624A215,215 0,0,0 122.75802418925778,321.27057045838046L186.83868279283854,289.180380305587A143.33333333333331,143.33333333333331 0,0,1 181.80896655739647,277.95840872737494Z" style="pointer-events: all; stroke-width: 1; fill: rgb(0, 204, 150); fill-opacity: 1; stroke: rgb(255, 255, 255); stroke-opacity: 1; opacity: 0.7;"/><g class="slicetext"><text data-notex="1" class="slicetext" text-anchor="middle" x="0" y="0" style="font-family: 'Open Sans', verdana, arial, sans-serif; font-size: 12px; fill: rgb(68, 68, 68); fill-opacity: 1; white-space: pre;" transform="translate(152.2524292718112,299.9212316816904)scale(0.4009789423458598)rotate(-24.142044065538357)">Kaggle Advanced Techniques</text></g></g><g class="slice"><path class="surface" d="M186.83868279283854,289.180380305587L122.75802418925778,321.27057045838046A215,215 0,0,0 129.81247787691788,334.2272019687082L191.54165191794527,297.81813464580546A143.33333333333331,143.33333333333331 0,0,1 186.83868279283854,289.180380305587Z" style="pointer-events: all; stroke-width: 1; fill: rgb(0, 204, 150); fill-opacity: 1; stroke: rgb(255, 255, 255); stroke-opacity: 1; opacity: 0.7;"/><g class="slicetext"><text data-notex="1" class="slicetext" text-anchor="middle" x="0" y="0" style="font-family: 'Open Sans', verdana, arial, sans-serif; font-size: 12px; fill: rgb(68, 68, 68); fill-opacity: 1; white-space: pre;" transform="translate(158.74708170525616,312.6616219657638)scale(0.504925326151612)rotate(-28.566817942530292)">Kaggle Getting Started</text></g></g><g class="slice"><path class="surface" d="M191.54165191794527,297.81813464580546L129.81247787691788,334.2272019687082A215,215 0,0,0 135.66046097942623,343.5846943913425L195.4403073196175,304.05646292756165A143.33333333333331,143.33333333333331 0,0,1 191.54165191794527,297.81813464580546Z" style="pointer-events: all; stroke-width: 1; fill: rgb(0, 204, 150); fill-opacity: 1; stroke: rgb(255, 255, 255); stroke-opacity: 1; opacity: 0.7;"/><g class="slicetext"><text data-notex="1" class="slicetext" text-anchor="middle" x="0" y="0" style="font-family: 'Open Sans', verdana, arial, sans-serif; font-size: 12px; fill: rgb(68, 68, 68); fill-opacity: 1; white-space: pre;" transform="translate(160.1331362065757,324.4801141937028)scale(0.5080121268356426)rotate(-32.003403284934734)">Kaggle Recipe Book</text></g></g><g class="slice"><path class="surface" d="M195.4403073196175,304.05646292756165L135.66046097942623,343.5846943913425A215,215 0,0,0 168.0007499725218,381.8955719303733L217.0004999816812,329.5970479535822A143.33333333333331,143.33333333333331 0,0,1 195.4403073196175,304.05646292756165Z" style="pointer-events: all; stroke-width: 1; fill: rgb(171, 99, 250); fill-opacity: 1; stroke: rgb(255, 255, 255); stroke-opacity: 1; opacity: 0.7;"/><g class="slicetext"><text data-notex="1" class="slicetext" text-anchor="middle" x="0" y="0" style="font-family: 'Open Sans', verdana, arial, sans-serif; font-size: 12px; fill: rgb(68, 68, 68); fill-opacity: 1; white-space: pre;" transform="translate(179.0721895952196,341.7210856110623)scale(0.33572043786174954)rotate(-40.16952574550703)">Kaggle for Kids: One Smart Goose</text></g></g><g class="slice"><path class="surface" d="M217.0004999816812,329.5970479535822L168.0007499725218,381.8955719303733A215,215 0,0,0 205.20801213116567,409.8532374609915L241.80534142077713,348.23549164066105A143.33333333333331,143.33333333333331 0,0,1 217.0004999816812,329.5970479535822Z" style="pointer-events: all; stroke-width: 1; fill: rgb(171, 99, 250); fill-opacity: 1; stroke: rgb(255, 255, 255); stroke-opacity: 1; opacity: 0.7;"/><g class="slicetext"><text data-notex="1" class="slicetext" text-anchor="middle" x="0" y="0" style="font-family: 'Open Sans', verdana, arial, sans-serif; font-size: 12px; fill: rgb(68, 68, 68); fill-opacity: 1; white-space: pre;" transform="translate(208.82062285513496,369.3118241993942)scale(0.4009789423458598)rotate(-53.078673112250954)">Kaggle Advanced Techniques</text></g></g><g class="slice"><path class="surface" d="M241.80534142077713,348.23549164066105L205.20801213116567,409.8532374609915A215,215 0,0,0 238.766017608467,426.030793483803L264.1773450723113,359.0205289892019A143.33333333333331,143.33333333333331 0,0,1 241.80534142077713,348.23549164066105Z" style="pointer-events: all; stroke-width: 1; fill: rgb(171, 99, 250); fill-opacity: 1; stroke: rgb(255, 255, 255); stroke-opacity: 1; opacity: 0.7;"/><g class="slicetext"><text data-notex="1" class="slicetext" text-anchor="middle" x="0" y="0" style="font-family: 'Open Sans', verdana, arial, sans-serif; font-size: 12px; fill: rgb(68, 68, 68); fill-opacity: 1; white-space: pre;" transform="translate(239.2510435909736,387.3626497820105)scale(0.504925326151612)rotate(-64.26233476120308)">Kaggle Getting Started</text></g></g><g class="slice"><path class="surface" d="M264.1773450723113,359.0205289892019L238.766017608467,426.030793483803A215,215 0,0,0 265.4405274778844,434.2100826521745L281.96035165192296,364.4733884347829A143.33333333333331,143.33333333333331 0,0,1 264.1773450723113,359.0205289892019Z" style="pointer-events: all; stroke-width: 1; fill: rgb(171, 99, 250); fill-opacity: 1; stroke: rgb(255, 255, 255); stroke-opacity: 1; opacity: 0.7;"/><g class="slicetext"><text data-notex="1" class="slicetext" text-anchor="middle" x="0" y="0" style="font-family: 'Open Sans', verdana, arial, sans-serif; font-size: 12px; fill: rgb(68, 68, 68); fill-opacity: 1; white-space: pre;" transform="translate(264.91945105244713,397.2914901161112)scale(0.5842044428146077)rotate(-72.95272397467158)">Kaggle Recipe Book</text></g></g><g class="slice"><path class="surface" d="M281.96035165192296,364.4733884347829L265.4405274778844,434.2100826521745A215,215 0,0,0 282.50122017201176,437.5295963147061L293.3341467813412,366.6863975431374A143.33333333333331,143.33333333333331 0,0,1 281.96035165192296,364.4733884347829Z" style="pointer-events: all; stroke-width: 1; fill: rgb(171, 99, 250); fill-opacity: 1; stroke: rgb(255, 255, 255); stroke-opacity: 1; opacity: 0.7;"/><g class="slicetext"><text data-notex="1" class="slicetext" text-anchor="middle" x="0" y="0" style="font-family: 'Open Sans', verdana, arial, sans-serif; font-size: 12px; fill: rgb(68, 68, 68); fill-opacity: 1; white-space: pre;" transform="translate(282.26551932060096,401.1494684701402)scale(0.33572043786174954)rotate(-78.98948006845023)">Kaggle for Kids: One Smart Goose</text></g></g><g class="slice"><path class="surface" d="M293.3341467813412,366.6863975431374L282.50122017201176,437.5295963147061A215,215 0,0,0 298.520392974186,439.36749415962004L304.013595316124,367.91166277308A143.33333333333331,143.33333333333331 0,0,1 293.3341467813412,366.6863975431374Z" style="pointer-events: all; stroke-width: 1; fill: rgb(171, 99, 250); fill-opacity: 1; stroke: rgb(255, 255, 255); stroke-opacity: 1; opacity: 0.7;"/><g class="slicetext"><text data-notex="1" class="slicetext" text-anchor="middle" x="0" y="0" style="font-family: 'Open Sans', verdana, arial, sans-serif; font-size: 12px; fill: rgb(68, 68, 68); fill-opacity: 1; white-space: pre;" transform="translate(296.371889615857,403.1935920232389)scale(0.4009789423458598)rotate(-83.45500793759766)">Kaggle Advanced Techniques</text></g></g><g class="slice"><path class="surface" d="M304.013595316124,367.91166277308L298.520392974186,439.36749415962004A215,215 0,0,0 311.43347959604733,439.9704164116732L312.6223197306982,368.3136109411155A143.33333333333331,143.33333333333331 0,0,1 304.013595316124,367.91166277308Z" style="pointer-events: all; stroke-width: 1; fill: rgb(171, 99, 250); fill-opacity: 1; stroke: rgb(255, 255, 255); stroke-opacity: 1; opacity: 0.7;"/><g class="slicetext"><text data-notex="1" class="slicetext" text-anchor="middle" x="0" y="0" style="font-family: 'Open Sans', verdana, arial, sans-serif; font-size: 12px; fill: rgb(68, 68, 68); fill-opacity: 1; white-space: pre;" transform="translate(308.91418416651527,404.0600382188423)scale(0.504925326151612)rotate(-87.3267560857056)">Kaggle Getting Started</text></g></g><g class="slice"><path class="surface" d="M312.6223197306982,368.3136109411155L311.43347959604733,439.9704164116732A215,215 0,0,0 321.1095165619467,439.91317737025645L319.0730110412978,368.27545158017097A143.33333333333331,143.33333333333331 0,0,1 312.6223197306982,368.3136109411155Z" style="pointer-events: all; stroke-width: 1; fill: rgb(171, 99, 250); fill-opacity: 1; stroke: rgb(255, 255, 255); stroke-opacity: 1; opacity: 0.7;"/><g class="slicetext"><text data-notex="1" class="slicetext" text-anchor="middle" x="0" y="0" style="font-family: 'Open Sans', verdana, arial, sans-serif; font-size: 12px; fill: rgb(68, 68, 68); fill-opacity: 1; white-space: pre;" transform="translate(314.0242457402078,411.45857242592865)scale(0.461938254338073)rotate(89.66106813622741)">Kaggle Recipe Book</text></g></g><g class="slice"><path class="surface" d="M319.0730110412979,368.2754515801709L321.10951656194686,439.91317737025645A215,215 0,0,0 366.2986368240049,433.7904448484146L349.1990912160033,364.1936298989431A143.33333333333331,143.33333333333331 0,0,1 319.0730110412979,368.2754515801709Z" style="pointer-events: all; stroke-width: 1; fill: rgb(255, 161, 90); fill-opacity: 1; stroke: rgb(255, 255, 255); stroke-opacity: 1; opacity: 0.7;"/><g class="slicetext"><text data-notex="1" class="slicetext" text-anchor="middle" x="0" y="0" style="font-family: 'Open Sans', verdana, arial, sans-serif; font-size: 12px; fill: rgb(68, 68, 68); fill-opacity: 1; white-space: pre;" transform="translate(337.55761168374164,402.73951621062884)scale(0.33572043786174954)rotate(82.28390861682362)">Kaggle for Kids: One Smart Goose</text></g></g><g class="slice"><path class="surface" d="M349.1990912160033,364.1936298989431L366.2986368240049,433.7904448484146A215,215 0,0,0 406.1518347838411,419.72119303131683L375.76788985589405,354.81412868754455A143.33333333333331,143.33333333333331 0,0,1 349.1990912160033,364.1936298989431Z" style="pointer-events: all; stroke-width: 1; fill: rgb(255, 161, 90); fill-opacity: 1; stroke: rgb(255, 255, 255); stroke-opacity: 1; opacity: 0.7;"/><g class="slicetext"><text data-notex="1" class="slicetext" text-anchor="middle" x="0" y="0" style="font-family: 'Open Sans', verdana, arial, sans-serif; font-size: 12px; fill: rgb(68, 68, 68); fill-opacity: 1; white-space: pre;" transform="translate(372.9379573270995,394.53806603648496)scale(0.4009789423458598)rotate(70.5555966137124)">Kaggle Advanced Techniques</text></g></g><g class="slice"><path class="surface" d="M375.76788985589405,354.81412868754455L406.1518347838411,419.72119303131683A215,215 0,0,0 435.66772431471225,402.94465518443815L395.4451495431415,343.62977012295875A143.33333333333331,143.33333333333331 0,0,1 375.76788985589405,354.81412868754455Z" style="pointer-events: all; stroke-width: 1; fill: rgb(255, 161, 90); fill-opacity: 1; stroke: rgb(255, 255, 255); stroke-opacity: 1; opacity: 0.7;"/><g class="slicetext"><text data-notex="1" class="slicetext" text-anchor="middle" x="0" y="0" style="font-family: 'Open Sans', verdana, arial, sans-serif; font-size: 12px; fill: rgb(68, 68, 68); fill-opacity: 1; white-space: pre;" transform="translate(401.55044608933224,381.8711405040135)scale(0.504925326151612)rotate(60.386531029434934)">Kaggle Getting Started</text></g></g><g class="slice"><path class="surface" d="M395.4451495431415,343.62977012295875L435.66772431471225,402.94465518443815A215,215 0,0,0 455.8664054358088,387.42430797018756L408.9109369572059,333.282871980125A143.33333333333331,143.33333333333331 0,0,1 395.4451495431415,343.62977012295875Z" style="pointer-events: all; stroke-width: 1; fill: rgb(255, 161, 90); fill-opacity: 1; stroke: rgb(255, 255, 255); stroke-opacity: 1; opacity: 0.7;"/><g class="slicetext"><text data-notex="1" class="slicetext" text-anchor="middle" x="0" y="0" style="font-family: 'Open Sans', verdana, arial, sans-serif; font-size: 12px; fill: rgb(68, 68, 68); fill-opacity: 1; white-space: pre;" transform="translate(421.9067684144946,368.4466556817641)scale(0.5842044428146077)rotate(52.461894136643195)">Kaggle Recipe Book</text></g></g><g class="slice"><path class="surface" d="M408.9109369572059,333.282871980125L455.8664054358088,387.42430797018756A215,215 0,0,0 467.47564068342854,376.57895301847805L416.6504271222857,326.05263534565205A143.33333333333331,143.33333333333331 0,0,1 408.9109369572059,333.282871980125Z" style="pointer-events: all; stroke-width: 1; fill: rgb(255, 161, 90); fill-opacity: 1; stroke: rgb(255, 255, 255); stroke-opacity: 1; opacity: 0.7;"/><g class="slicetext"><text data-notex="1" class="slicetext" text-anchor="middle" x="0" y="0" style="font-family: 'Open Sans', verdana, arial, sans-serif; font-size: 12px; fill: rgb(68, 68, 68); fill-opacity: 1; white-space: pre;" transform="translate(436.20007609011145,356.94969883790594)scale(0.33572043786174954)rotate(46.94838759725303)">Kaggle for Kids: One Smart Goose</text></g></g><g class="slice"><path class="surface" d="M416.6504271222857,326.05263534565205L467.47564068342854,376.57895301847805A215,215 0,0,0 477.46059762188844,365.82455119878375L423.30706508125894,318.8830341325225A143.33333333333331,143.33333333333331 0,0,1 416.6504271222857,326.05263534565205Z" style="pointer-events: all; stroke-width: 1; fill: rgb(255, 161, 90); fill-opacity: 1; stroke: rgb(255, 255, 255); stroke-opacity: 1; opacity: 0.7;"/><g class="slicetext"><text data-notex="1" class="slicetext" text-anchor="middle" x="0" y="0" style="font-family: 'Open Sans', verdana, arial, sans-serif; font-size: 12px; fill: rgb(68, 68, 68); fill-opacity: 1; white-space: pre;" transform="translate(445.0640378261353,348.2205697072936)scale(0.4009789423458598)rotate(42.87526056537888)">Kaggle Advanced Techniques</text></g></g><g class="slice"><path class="surface" d="M423.30706508125894,318.8830341325225L477.46059762188844,365.82455119878375A215,215 0,0,0 484.91140920604045,356.7388060581144L428.27427280402696,312.82587070540956A143.33333333333331,143.33333333333331 0,0,1 423.30706508125894,318.8830341325225Z" style="pointer-events: all; stroke-width: 1; fill: rgb(255, 161, 90); fill-opacity: 1; stroke: rgb(255, 255, 255); stroke-opacity: 1; opacity: 0.7;"/><g class="slicetext"><text data-notex="1" class="slicetext" text-anchor="middle" x="0" y="0" style="font-family: 'Open Sans', verdana, arial, sans-serif; font-size: 12px; fill: rgb(68, 68, 68); fill-opacity: 1; white-space: pre;" transform="translate(452.0856348140405,340.35624460307247)scale(0.504925326151612)rotate(39.3536400698124)">Kaggle Getting Started</text></g></g><g class="slice"><path class="surface" d="M428.27427280402696,312.82587070540956L484.91140920604045,356.7388060581144A215,215 0,0,0 490.1554480454121,349.6818712564539L431.7702986969414,308.12124750430263A143.33333333333331,143.33333333333331 0,0,1 428.27427280402696,312.82587070540956Z" style="pointer-events: all; stroke-width: 1; fill: rgb(255, 161, 90); fill-opacity: 1; stroke: rgb(255, 255, 255); stroke-opacity: 1; opacity: 0.7;"/><g class="slicetext"><text data-notex="1" class="slicetext" text-anchor="middle" x="0" y="0" style="font-family: 'Open Sans', verdana, arial, sans-serif; font-size: 12px; fill: rgb(68, 68, 68); fill-opacity: 1; white-space: pre;" transform="translate(465.0813640863368,338.9373021081572)scale(0.43007529979987175)rotate(36.61620036139175)">Kaggle Recipe Book</text></g></g><g class="slice"><path class="surface" d="M431.7702986969414,308.12124750430263L490.1554480454121,349.6818712564539A215,215 0,0,0 506.1683054533639,323.3853596328709L442.44553696890927,290.59023975524724A143.33333333333331,143.33333333333331 0,0,1 431.7702986969414,308.12124750430263Z" style="pointer-events: all; stroke-width: 1; fill: rgb(25, 211, 243); fill-opacity: 1; stroke: rgb(255, 255, 255); stroke-opacity: 1; opacity: 0.7;"/><g class="slicetext"><text data-notex="1" class="slicetext" text-anchor="middle" x="0" y="0" style="font-family: 'Open Sans', verdana, arial, sans-serif; font-size: 12px; fill: rgb(68, 68, 68); fill-opacity: 1; white-space: pre;" transform="translate(467.2352675471119,319.4701264025942)scale(0.33572043786174954)rotate(31.33868387576706)">Kaggle for Kids: One Smart Goose</text></g></g><g class="slice"><path class="surface" d="M442.44553696890927,290.59023975524724L506.1683054533639,323.3853596328709A215,215 0,0,0 517.4318145802108,297.43176406634836L449.95454305347386,273.2878427108989A143.33333333333331,143.33333333333331 0,0,1 442.44553696890927,290.59023975524724Z" style="pointer-events: all; stroke-width: 1; fill: rgb(25, 211, 243); fill-opacity: 1; stroke: rgb(255, 255, 255); stroke-opacity: 1; opacity: 0.7;"/><g class="slicetext"><text data-notex="1" class="slicetext" text-anchor="middle" x="0" y="0" style="font-family: 'Open Sans', verdana, arial, sans-serif; font-size: 12px; fill: rgb(68, 68, 68); fill-opacity: 1; white-space: pre;" transform="translate(478.6276317856423,297.97918094121513)scale(0.4009789423458598)rotate(23.460190806184187)">Kaggle Advanced Techniques</text></g></g><g class="slice"><path class="surface" d="M449.95454305347386,273.2878427108989L517.4318145802108,297.43176406634836A215,215 0,0,0 523.9347284651471,275.7077828463763L454.2898189767647,258.8051885642509A143.33333333333331,143.33333333333331 0,0,1 449.95454305347386,273.2878427108989Z" style="pointer-events: all; stroke-width: 1; fill: rgb(25, 211, 243); fill-opacity: 1; stroke: rgb(255, 255, 255); stroke-opacity: 1; opacity: 0.7;"/><g class="slicetext"><text data-notex="1" class="slicetext" text-anchor="middle" x="0" y="0" style="font-family: 'Open Sans', verdana, arial, sans-serif; font-size: 12px; fill: rgb(68, 68, 68); fill-opacity: 1; white-space: pre;" transform="translate(485.9730725534318,278.5513109356933)scale(0.504925326151612)rotate(16.66468388794999)">Kaggle Getting Started</text></g></g><g class="slice"><path class="surface" d="M454.2898189767647,258.8051885642509L523.9347284651471,275.7077828463763A215,215 0,0,0 527.2857831980402,259.0550473791277L456.52385546536016,247.70336491941848A143.33333333333331,143.33333333333331 0,0,1 454.2898189767647,258.8051885642509Z" style="pointer-events: all; stroke-width: 1; fill: rgb(25, 211, 243); fill-opacity: 1; stroke: rgb(255, 255, 255); stroke-opacity: 1; opacity: 0.7;"/><g class="slicetext"><text data-notex="1" class="slicetext" text-anchor="middle" x="0" y="0" style="font-family: 'Open Sans', verdana, arial, sans-serif; font-size: 12px; fill: rgb(68, 68, 68); fill-opacity: 1; white-space: pre;" transform="translate(489.8488275096253,262.86670935825106)scale(0.5842044428146077)rotate(11.377761618722502)">Kaggle Recipe Book</text></g></g><g class="slice"><path class="surface" d="M456.52385546536016,247.70336491941833L527.2857831980403,259.05504737912753A215,215 0,0,0 528.7137946390874,248.48220562387633L457.47586309272486,240.6548037492509A143.33333333333331,143.33333333333331 0,0,1 456.52385546536016,247.70336491941833Z" style="pointer-events: all; stroke-width: 1; fill: rgb(25, 211, 243); fill-opacity: 1; stroke: rgb(255, 255, 255); stroke-opacity: 1; opacity: 0.7;"/><g class="slicetext"><text data-notex="1" class="slicetext" text-anchor="middle" x="0" y="0" style="font-family: 'Open Sans', verdana, arial, sans-serif; font-size: 12px; fill: rgb(68, 68, 68); fill-opacity: 1; white-space: pre;" transform="translate(492.34454185041,250.47734176736347)scale(0.33572043786174954)rotate(7.692055114545326)">Kaggle for Kids: One Smart Goose</text></g></g><g class="slice"><path class="surface" d="M457.47586309272486,240.6548037492509L528.7137946390874,248.48220562387633A215,215 0,0,0 529.5610330829961,238.73182734953423L458.0406887219974,234.15455156635613A143.33333333333331,143.33333333333331 0,0,1 457.47586309272486,240.6548037492509Z" style="pointer-events: all; stroke-width: 1; fill: rgb(25, 211, 243); fill-opacity: 1; stroke: rgb(255, 255, 255); stroke-opacity: 1; opacity: 0.7;"/><g class="slicetext"><text data-notex="1" class="slicetext" text-anchor="middle" x="0" y="0" style="font-family: 'Open Sans', verdana, arial, sans-serif; font-size: 12px; fill: rgb(68, 68, 68); fill-opacity: 1; white-space: pre;" transform="translate(493.32679731290324,242.30653329673714)scale(0.4009789423458598)rotate(4.9661216385937905)">Kaggle Advanced Techniques</text></g></g><g class="slice"><path class="surface" d="M458.0406887219974,234.15455156635613L529.5610330829961,238.73182734953423A215,215 0,0,0 529.9197361246696,230.87426796310865L458.279824083113,228.91617864207242A143.33333333333331,143.33333333333331 0,0,1 458.0406887219974,234.15455156635613Z" style="pointer-events: all; stroke-width: 1; fill: rgb(25, 211, 243); fill-opacity: 1; stroke: rgb(255, 255, 255); stroke-opacity: 1; opacity: 0.7;"/><g class="slicetext"><text data-notex="1" class="slicetext" text-anchor="middle" x="0" y="0" style="font-family: 'Open Sans', verdana, arial, sans-serif; font-size: 12px; fill: rgb(68, 68, 68); fill-opacity: 1; white-space: pre;" transform="translate(502.6480947548199,235.28462404811174)scale(0.38146011349845677)rotate(2.613777432709867)">Kaggle Getting Started</text></g></g><g class="slice"><path class="surface" d="M458.279824083113,228.91617864207242L529.9197361246696,230.87426796310865A215,215 0,0,0 530,225.00000000000026L458.3333333333333,225.00000000000017A143.33333333333331,143.33333333333331 0,0,1 458.279824083113,228.91617864207242Z" style="pointer-events: all; stroke-width: 1; fill: rgb(25, 211, 243); fill-opacity: 1; stroke: rgb(255, 255, 255); stroke-opacity: 1; opacity: 0.7;"/><g class="slicetext"><text data-notex="1" class="slicetext" text-anchor="middle" x="0" y="0" style="font-family: 'Open Sans', verdana, arial, sans-serif; font-size: 12px; fill: rgb(68, 68, 68); fill-opacity: 1; white-space: pre;" transform="translate(510.6348788551341,229.08090524156094)scale(0.31281989623841333)rotate(0.7828201190122854)">Kaggle Recipe Book</text></g></g></g></g><g class="glimages"/><defs id="topdefs-5c46cd"><g class="clips"/></defs><g class="layer-above"><g class="imagelayer"/><g class="shapelayer"/></g><g class="infolayer"><g class="g-gtitle"><text class="gtitle" x="35" y="22.5" text-anchor="start" dy="0.7em" style="font-family: 'Open Sans', verdana, arial, sans-serif; font-size: 22px; fill: rgb(0, 0, 0); opacity: 1; font-weight: normal; white-space: pre;">Sunburst num_sold</text></g></g></svg>