<svg class="main-svg" xmlns="http://www.w3.org/2000/svg" xmlns:xlink="http://www.w3.org/1999/xlink" width="700" height="450" style="" viewBox="0 0 700 450"><rect x="0" y="0" width="700" height="450" style="fill: rgb(255, 255, 255); fill-opacity: 1;"/><defs id="defs-48d052"><g class="clips"/><g class="gradients"/><g class="patterns"/></defs><g class="bglayer"/><g class="layer-below"><g class="imagelayer"/><g class="shapelayer"/></g><g class="cartesianlayer"/><g class="polarlayer"/><g class="smithlayer"/><g class="ternarylayer"/><g class="geolayer"/><g class="funnelarealayer"/><g class="pielayer"/><g class="iciclelayer"/><g class="treemaplayer"/><g class="sunburstlayer"><g class="trace sunburst" stroke-linejoin="round" style="opacity: 1;"><g class="slice cursor-pointer"><path class="surface" d="M315,225L358,225A43,43 0,0,0 323.85895804023215,182.92246606036178L315,225A0,0 0,0,1 315,225Z" style="pointer-events: all; stroke-width: 1; fill: rgb(99, 110, 250); fill-opacity: 1; stroke: rgb(255, 255, 255); stroke-opacity: 1;"/><g class="slicetext"><text data-notex="1" class="slicetext" text-anchor="middle" x="0" y="0" style="font-family: 'Open Sans', verdana, arial, sans-serif; font-size: 12px; fill: rgb(255, 255, 255); fill-opacity: 1; white-space: pre;" transform="translate(335.4844699171451,212.87922683472584)">C</text></g></g><g class="slice cursor-pointer"><path class="surface" d="M315,225L323.85895804023215,182.92246606036178A43,43 0,0,0 277.5733838010199,203.82812242869716L315,225A0,0 0,0,1 315,225Z" style="pointer-events: all; stroke-width: 1; fill: rgb(239, 85, 59); fill-opacity: 1; stroke: rgb(255, 255, 255); stroke-opacity: 1;"/><g class="slicetext"><text data-notex="1" class="slicetext" text-anchor="middle" x="0" y="0" style="font-family: 'Open Sans', verdana, arial, sans-serif; font-size: 12px; fill: rgb(68, 68, 68); fill-opacity: 1; white-space: pre;" transform="translate(303.87182559934075,204.861981786481)">E</text></g></g><g class="slice cursor-pointer"><path class="surface" d="M315,225L277.5733838010199,203.82812242869716A43,43 0,0,0 282.86284165103143,253.56926763592867L315,225A0,0 0,0,1 315,225Z" style="pointer-events: all; stroke-width: 1; fill: rgb(0, 204, 150); fill-opacity: 1; stroke: rgb(255, 255, 255); stroke-opacity: 1;"/><g class="slicetext"><text data-notex="1" class="slicetext" text-anchor="middle" x="0" y="0" style="font-family: 'Open Sans', verdana, arial, sans-serif; font-size: 12px; fill: rgb(68, 68, 68); fill-opacity: 1; white-space: pre;" transform="translate(287.9655650353986,232.3748333728221)">B</text></g></g><g class="slice cursor-pointer"><path class="surface" d="M315,225L282.86284165103143,253.56926763592867A43,43 0,0,0 330.3393909342916,265.17092338700934L315,225A0,0 0,0,1 315,225Z" style="pointer-events: all; stroke-width: 1; fill: rgb(171, 99, 250); fill-opacity: 1; stroke: rgb(255, 255, 255); stroke-opacity: 1;"/><g class="slicetext"><text data-notex="1" class="slicetext" text-anchor="middle" x="0" y="0" style="font-family: 'Open Sans', verdana, arial, sans-serif; font-size: 12px; fill: rgb(68, 68, 68); fill-opacity: 1; white-space: pre;" transform="translate(308.49141551403903,256.134571714749)">D</text></g></g><g class="slice cursor-pointer"><path class="surface" d="M315,225L330.3393909342916,265.17092338700934A43,43 0,0,0 358,225L315,225A0,0 0,0,1 315,225Z" style="pointer-events: all; stroke-width: 1; fill: rgb(255, 161, 90); fill-opacity: 1; stroke: rgb(255, 255, 255); stroke-opacity: 1;"/><g class="slicetext"><text data-notex="1" class="slicetext" text-anchor="middle" x="0" y="0" style="font-family: 'Open Sans', verdana, arial, sans-serif; font-size: 12px; fill: rgb(68, 68, 68); fill-opacity: 1; white-space: pre;" transform="translate(337.599326914001,245.0612839887687)">A</text></g></g><g class="slice cursor-pointer"><path class="surface" d="M358,225L401,225A86,86 0,0,0 332.71791608046436,140.84493212072357L323.85895804023215,182.92246606036178A43,43 0,0,1 358,225Z" style="pointer-events: all; stroke-width: 1; fill: rgb(99, 110, 250); fill-opacity: 1; stroke: rgb(255, 255, 255); stroke-opacity: 1;"/><g class="slicetext"><text data-notex="1" class="slicetext" text-anchor="middle" x="0" y="0" style="font-family: 'Open Sans', verdana, arial, sans-serif; font-size: 12px; fill: rgb(255, 255, 255); fill-opacity: 1; white-space: pre;" transform="translate(365.08669579036166,188.86045146899676)">8</text></g></g><g class="slice cursor-pointer"><path class="surface" d="M323.85895804023215,182.92246606036178L332.71791608046436,140.84493212072357A86,86 0,0,0 240.1467676020397,182.65624485739428L277.5733838010199,203.82812242869716A43,43 0,0,1 323.85895804023215,182.92246606036178Z" style="pointer-events: all; stroke-width: 1; fill: rgb(239, 85, 59); fill-opacity: 1; stroke: rgb(255, 255, 255); stroke-opacity: 1;"/><g class="slicetext"><text data-notex="1" class="slicetext" text-anchor="middle" x="0" y="0" style="font-family: 'Open Sans', verdana, arial, sans-serif; font-size: 12px; fill: rgb(68, 68, 68); fill-opacity: 1; white-space: pre;" transform="translate(288.4500258382965,170.7177843900651)">9</text></g></g><g class="slice cursor-pointer"><path class="surface" d="M277.5733838010199,203.82812242869716L240.1467676020397,182.65624485739428A86,86 0,0,0 250.72568330206292,282.13853527185734L282.86284165103143,253.56926763592867A43,43 0,0,1 277.5733838010199,203.82812242869716Z" style="pointer-events: all; stroke-width: 1; fill: rgb(0, 204, 150); fill-opacity: 1; stroke: rgb(255, 255, 255); stroke-opacity: 1;"/><g class="slicetext"><text data-notex="1" class="slicetext" text-anchor="middle" x="0" y="0" style="font-family: 'Open Sans', verdana, arial, sans-serif; font-size: 12px; fill: rgb(68, 68, 68); fill-opacity: 1; white-space: pre;" transform="translate(250.8616230799753,236.32045497491492)">8</text></g></g><g class="slice cursor-pointer"><path class="surface" d="M282.86284165103143,253.56926763592867L250.72568330206292,282.13853527185734A86,86 0,0,0 345.67878186858326,305.3418467740186L330.3393909342916,265.17092338700934A43,43 0,0,1 282.86284165103143,253.56926763592867Z" style="pointer-events: all; stroke-width: 1; fill: rgb(171, 99, 250); fill-opacity: 1; stroke: rgb(255, 255, 255); stroke-opacity: 1;"/><g class="slicetext"><text data-notex="1" class="slicetext" text-anchor="middle" x="0" y="0" style="font-family: 'Open Sans', verdana, arial, sans-serif; font-size: 12px; fill: rgb(68, 68, 68); fill-opacity: 1; white-space: pre;" transform="translate(299.68891199049386,292.15636906145426)">6</text></g></g><g class="slice cursor-pointer"><path class="surface" d="M330.3393909342916,265.17092338700934L345.67878186858326,305.3418467740186A86,86 0,0,0 401,225.00000000000003L358,225A43,43 0,0,1 330.3393909342916,265.17092338700934Z" style="pointer-events: all; stroke-width: 1; fill: rgb(255, 161, 90); fill-opacity: 1; stroke: rgb(255, 255, 255); stroke-opacity: 1;"/><g class="slicetext"><text data-notex="1" class="slicetext" text-anchor="middle" x="0" y="0" style="font-family: 'Open Sans', verdana, arial, sans-serif; font-size: 12px; fill: rgb(68, 68, 68); fill-opacity: 1; white-space: pre;" transform="translate(368.1240815115552,266.07980267242624)">5</text></g></g><g class="slice cursor-pointer"><path class="surface" d="M401,225L444,225A129,129 0,0,0 341.5768741206965,98.76739818108535L332.71791608046436,140.84493212072357A86,86 0,0,1 401,225Z" style="pointer-events: all; stroke-width: 1; fill: rgb(99, 110, 250); fill-opacity: 1; stroke: rgb(255, 255, 255); stroke-opacity: 1;"/><g class="slicetext"><text data-notex="1" class="slicetext" text-anchor="middle" x="0" y="0" style="font-family: 'Open Sans', verdana, arial, sans-serif; font-size: 12px; fill: rgb(255, 255, 255); fill-opacity: 1; white-space: pre;" transform="translate(398.47782631726943,161.7674191149946)">5</text></g></g><g class="slice cursor-pointer"><path class="surface" d="M332.71791608046436,140.84493212072357L341.5768741206965,98.76739818108535A129,129 0,0,0 202.72015140305956,161.48436728609144L240.1467676020397,182.65624485739428A86,86 0,0,1 332.71791608046436,140.84493212072357Z" style="pointer-events: all; stroke-width: 1; fill: rgb(239, 85, 59); fill-opacity: 1; stroke: rgb(255, 255, 255); stroke-opacity: 1;"/><g class="slicetext"><text data-notex="1" class="slicetext" text-anchor="middle" x="0" y="0" style="font-family: 'Open Sans', verdana, arial, sans-serif; font-size: 12px; fill: rgb(68, 68, 68); fill-opacity: 1; white-space: pre;" transform="translate(270.75004306382743,131.5296406501085)">6</text></g></g><g class="slice cursor-pointer"><path class="surface" d="M240.1467676020397,182.65624485739428L202.72015140305956,161.48436728609144A129,129 0,0,0 218.58852495309435,310.707802907786L250.72568330206292,282.13853527185734A86,86 0,0,1 240.1467676020397,182.65624485739428Z" style="pointer-events: all; stroke-width: 1; fill: rgb(0, 204, 150); fill-opacity: 1; stroke: rgb(255, 255, 255); stroke-opacity: 1;"/><g class="slicetext"><text data-notex="1" class="slicetext" text-anchor="middle" x="0" y="0" style="font-family: 'Open Sans', verdana, arial, sans-serif; font-size: 12px; fill: rgb(68, 68, 68); fill-opacity: 1; white-space: pre;" transform="translate(208.10270513329215,240.86742495819152)">8</text></g></g><g class="slice cursor-pointer"><path class="surface" d="M250.72568330206292,282.13853527185734L218.58852495309435,310.707802907786A129,129 0,0,0 361.01817280287486,345.51277016102796L345.67878186858326,305.3418467740186A86,86 0,0,1 250.72568330206292,282.13853527185734Z" style="pointer-events: all; stroke-width: 1; fill: rgb(171, 99, 250); fill-opacity: 1; stroke: rgb(255, 255, 255); stroke-opacity: 1;"/><g class="slicetext"><text data-notex="1" class="slicetext" text-anchor="middle" x="0" y="0" style="font-family: 'Open Sans', verdana, arial, sans-serif; font-size: 12px; fill: rgb(68, 68, 68); fill-opacity: 1; white-space: pre;" transform="translate(289.4815199841565,333.92728176909037)">6</text></g></g><g class="slice cursor-pointer"><path class="surface" d="M345.67878186858326,305.3418467740186L361.01817280287486,345.51277016102796A129,129 0,0,0 444,225.00000000000003L401,225.00000000000003A86,86 0,0,1 345.67878186858326,305.3418467740186Z" style="pointer-events: all; stroke-width: 1; fill: rgb(255, 161, 90); fill-opacity: 1; stroke: rgb(255, 255, 255); stroke-opacity: 1;"/><g class="slicetext"><text data-notex="1" class="slicetext" text-anchor="middle" x="0" y="0" style="font-family: 'Open Sans', verdana, arial, sans-serif; font-size: 12px; fill: rgb(68, 68, 68); fill-opacity: 1; white-space: pre;" transform="translate(403.54013585259196,290.46633778737703)">9</text></g></g><g class="slice cursor-pointer"><path class="surface" d="M444,225L487,225A172,172 0,0,0 350.43583216092867,56.68986424144714L341.5768741206965,98.76739818108535A129,129 0,0,1 444,225Z" style="pointer-events: all; stroke-width: 1; fill: rgb(99, 110, 250); fill-opacity: 1; stroke: rgb(255, 255, 255); stroke-opacity: 1;"/><g class="slicetext"><text data-notex="1" class="slicetext" text-anchor="middle" x="0" y="0" style="font-family: 'Open Sans', verdana, arial, sans-serif; font-size: 12px; fill: rgb(255, 255, 255); fill-opacity: 1; white-space: pre;" transform="translate(423.6037644147573,136.88063247261564)rotate(50.944674444862585)">material_8</text></g></g><g class="slice cursor-pointer"><path class="surface" d="M341.5768741206965,98.76739818108535L350.43583216092867,56.68986424144714A172,172 0,0,0 165.2935352040794,140.31248971478857L202.72015140305956,161.48436728609144A129,129 0,0,1 341.5768741206965,98.76739818108535Z" style="pointer-events: all; stroke-width: 1; fill: rgb(239, 85, 59); fill-opacity: 1; stroke: rgb(255, 255, 255); stroke-opacity: 1;"/><g class="slicetext"><text data-notex="1" class="slicetext" text-anchor="middle" x="0" y="0" style="font-family: 'Open Sans', verdana, arial, sans-serif; font-size: 12px; fill: rgb(68, 68, 68); fill-opacity: 1; white-space: pre;" transform="translate(257.43127653810194,97.54160420964865)rotate(-24.307113285660535)">material_6</text></g></g><g class="slice cursor-pointer"><path class="surface" d="M202.72015140305956,161.48436728609144L165.2935352040794,140.31248971478857A172,172 0,0,0 186.4513666041258,339.2770705437147L218.58852495309435,310.707802907786A129,129 0,0,1 202.72015140305956,161.48436728609144Z" style="pointer-events: all; stroke-width: 1; fill: rgb(0, 204, 150); fill-opacity: 1; stroke: rgb(255, 255, 255); stroke-opacity: 1;"/><g class="slicetext"><text data-notex="1" class="slicetext" text-anchor="middle" x="0" y="0" style="font-family: 'Open Sans', verdana, arial, sans-serif; font-size: 12px; fill: rgb(68, 68, 68); fill-opacity: 1; white-space: pre;" transform="translate(166.97821505724912,240.74059039204298)rotate(83.92999623635683)">material_5</text></g></g><g class="slice cursor-pointer"><path class="surface" d="M218.58852495309435,310.707802907786L186.4513666041258,339.2770705437147A172,172 0,0,0 376.3575637371665,385.68369354803724L361.01817280287486,345.51277016102796A129,129 0,0,1 218.58852495309435,310.707802907786Z" style="pointer-events: all; stroke-width: 1; fill: rgb(171, 99, 250); fill-opacity: 1; stroke: rgb(255, 255, 255); stroke-opacity: 1;"/><g class="slicetext"><text data-notex="1" class="slicetext" text-anchor="middle" x="0" y="0" style="font-family: 'Open Sans', verdana, arial, sans-serif; font-size: 12px; fill: rgb(68, 68, 68); fill-opacity: 1; white-space: pre;" transform="translate(279.66429795364746,369.6015323723074)rotate(13.732028603688377)">material_5</text></g></g><g class="slice cursor-pointer"><path class="surface" d="M361.01817280287486,345.51277016102796L376.3575637371665,385.68369354803724A172,172 0,0,0 487,225.00000000000003L444,225.00000000000003A129,129 0,0,1 361.01817280287486,345.51277016102796Z" style="pointer-events: all; stroke-width: 1; fill: rgb(255, 161, 90); fill-opacity: 1; stroke: rgb(255, 255, 255); stroke-opacity: 1;"/><g class="slicetext"><text data-notex="1" class="slicetext" text-anchor="middle" x="0" y="0" style="font-family: 'Open Sans', verdana, arial, sans-serif; font-size: 12px; fill: rgb(68, 68, 68); fill-opacity: 1; white-space: pre;" transform="translate(437.60243782891104,309.42071571561144)rotate(-55.44975536319157)">material_8</text></g></g><g class="slice"><path class="surface" d="M487,225L530,225A215,215 0,0,0 359.2947902011608,14.612330301808925L350.43583216092867,56.68986424144714A172,172 0,0,1 487,225Z" style="pointer-events: all; stroke-width: 1; fill: rgb(99, 110, 250); fill-opacity: 1; stroke: rgb(255, 255, 255); stroke-opacity: 1; opacity: 0.7;"/><g class="slicetext"><text data-notex="1" class="slicetext" text-anchor="middle" x="0" y="0" style="font-family: 'Open Sans', verdana, arial, sans-serif; font-size: 12px; fill: rgb(255, 255, 255); fill-opacity: 1; white-space: pre;" transform="translate(457.53240223055064,109.35147525136603)rotate(50.944674444862585)">material_7</text></g></g><g class="slice"><path class="surface" d="M350.43583216092867,56.68986424144714L359.2947902011608,14.612330301808925A215,215 0,0,0 127.86691900509925,119.14061214348574L165.2935352040794,140.31248971478857A172,172 0,0,1 350.43583216092867,56.68986424144714Z" style="pointer-events: all; stroke-width: 1; fill: rgb(239, 85, 59); fill-opacity: 1; stroke: rgb(255, 255, 255); stroke-opacity: 1; opacity: 0.7;"/><g class="slicetext"><text data-notex="1" class="slicetext" text-anchor="middle" x="0" y="0" style="font-family: 'Open Sans', verdana, arial, sans-serif; font-size: 12px; fill: rgb(68, 68, 68); fill-opacity: 1; white-space: pre;" transform="translate(239.4463717018668,57.72263687774603)rotate(-24.307113285660535)">material_7</text></g></g><g class="slice"><path class="surface" d="M165.2935352040794,140.31248971478857L127.86691900509925,119.14061214348574A215,215 0,0,0 154.31420825515727,367.84633817964334L186.4513666041258,339.2770705437147A172,172 0,0,1 165.2935352040794,140.31248971478857Z" style="pointer-events: all; stroke-width: 1; fill: rgb(0, 204, 150); fill-opacity: 1; stroke: rgb(255, 255, 255); stroke-opacity: 1; opacity: 0.7;"/><g class="slicetext"><text data-notex="1" class="slicetext" text-anchor="middle" x="0" y="0" style="font-family: 'Open Sans', verdana, arial, sans-serif; font-size: 12px; fill: rgb(68, 68, 68); fill-opacity: 1; white-space: pre;" transform="translate(123.5309936689475,245.36075434838335)rotate(83.92999623635683)">material_5</text></g></g><g class="slice"><path class="surface" d="M186.4513666041258,339.2770705437147L154.31420825515727,367.84633817964334A215,215 0,0,0 391.6969546714581,425.8546169350466L376.3575637371665,385.68369354803724A172,172 0,0,1 186.4513666041258,339.2770705437147Z" style="pointer-events: all; stroke-width: 1; fill: rgb(171, 99, 250); fill-opacity: 1; stroke: rgb(255, 255, 255); stroke-opacity: 1; opacity: 0.7;"/><g class="slicetext"><text data-notex="1" class="slicetext" text-anchor="middle" x="0" y="0" style="font-family: 'Open Sans', verdana, arial, sans-serif; font-size: 12px; fill: rgb(68, 68, 68); fill-opacity: 1; white-space: pre;" transform="translate(269.2925944215443,412.044844297624)rotate(13.732028603688377)">material_7</text></g></g><g class="slice"><path class="surface" d="M376.3575637371665,385.68369354803724L391.6969546714581,425.8546169350466A215,215 0,0,0 530,225.00000000000006L487,225.00000000000003A172,172 0,0,1 376.3575637371665,385.68369354803724Z" style="pointer-events: all; stroke-width: 1; fill: rgb(255, 161, 90); fill-opacity: 1; stroke: rgb(255, 255, 255); stroke-opacity: 1; opacity: 0.7;"/><g class="slicetext"><text data-notex="1" class="slicetext" text-anchor="middle" x="0" y="0" style="font-family: 'Open Sans', verdana, arial, sans-serif; font-size: 12px; fill: rgb(68, 68, 68); fill-opacity: 1; white-space: pre;" transform="translate(473.58859527971026,334.1998083800704)rotate(-55.44975536319157)">material_7</text></g></g></g></g><g class="glimages"/><defs id="topdefs-48d052"><g class="clips"/></defs><g class="layer-above"><g class="imagelayer"/><g class="shapelayer"/></g><g class="infolayer"><g class="g-gtitle"><text class="gtitle" x="35" y="22.5" text-anchor="start" dy="0.7em" style="font-family: 'Open Sans', verdana, arial, sans-serif; font-size: 22px; fill: rgb(0, 0, 0); opacity: 1; font-weight: normal; white-space: pre;">Sunburst train_data</text></g></g></svg>